<svg xmlns="http://www.w3.org/2000/svg" fill="none" height="30" viewBox="0.0 0.0 38.0 37.0" width="30"><path d="m31.3873 5.08606v2.57543h2.529v.63171h-2.529v2.5754h-.6942v-2.5754h-2.529v-.63171h2.529v-2.57543z" stroke="#ffffff" stroke-miterlimit="10" stroke-width="1.61874" /><path d="m34.3653 15.6807c.1983 1.0205.2975 2.0409.2975 3.1099 0 8.5037-7.0415 15.4038-15.7195 15.4038-8.6779 0-15.66986-6.9001-15.66986-15.4038 0-8.5036 7.04156-15.40376 15.66986-15.40376 2.0332 0 4.0167.38874 5.8019 1.06903" stroke="#ffffff" stroke-miterlimit="10" stroke-width="3.23749" /><g fill="#ffffff"><path d="m15.9347 12.7448v12.7553h-2.6968v-10.1955h-.0747l-2.921 1.8311v-2.3916l3.1577-1.9993z" /><path d="m22.3215 25.6745c-.9591 0-1.8124-.1557-2.5598-.4672-.7432-.3155-1.3266-.7453-1.7501-1.2892s-.6353-1.1605-.6353-1.8497c0-.5315.1205-1.0194.3613-1.4637.2449-.4484.5771-.82.9965-1.1148.4193-.2989.8885-.4899 1.4075-.573v-.0872c-.6809-.137-1.2331-.4671-1.6566-.9903-.4236-.5273-.6353-1.1397-.6353-1.8373 0-.6601.1931-1.2477.5792-1.7625.3861-.519.9155-.9259 1.5882-1.2207.6768-.299 1.4449-.4485 2.3044-.4485s1.6255.1495 2.2982.4485c.6768.2989 1.2082.7079 1.5944 1.2269.3861.5149.5813 1.1003.5854 1.7563-.0041.7017-.22 1.3142-.6477 1.8373-.4277.5232-.9757.8533-1.6442.9903v.0872c.5107.0831.9736.2741 1.3888.573.4194.2948.7516.6664.9966 1.1148.2491.4443.3757.9322.3799 1.4637-.0042.6892-.218 1.3058-.6415 1.8497s-1.009.9737-1.7564 1.2892c-.7432.3115-1.5944.4672-2.5535.4672zm0-1.9806c.4277 0 .8013-.0768 1.1211-.2304.3197-.1578.5688-.3737.7473-.6478.1827-.2782.2741-.5979.2741-.9591 0-.3695-.0934-.6955-.2803-.9778-.1868-.2865-.4401-.5107-.7598-.6727-.3197-.166-.6872-.2491-1.1024-.2491-.4111 0-.7785.0831-1.1024.2491-.3239.162-.5792.3862-.7661.6727-.1826.2823-.274.6083-.274.9778 0 .3612.0893.6809.2678.9591.1786.2741.4298.49.7536.6478.3239.1536.6976.2304 1.1211.2304zm0-5.6987c.3571 0 .6747-.0727.9529-.218.2782-.1454.4962-.3467.654-.6042.1577-.2574.2366-.5543.2366-.8906 0-.3322-.0789-.6228-.2366-.8719-.1578-.2533-.3737-.4505-.6478-.5917-.274-.1453-.5937-.218-.9591-.218-.3612 0-.681.0727-.9591.218-.2782.1412-.4962.3384-.654.5917-.1536.2491-.2304.5397-.2304.8719 0 .3363.0789.6332.2366.8906.1578.2575.3758.4588.654.6042.2782.1453.5958.218.9529.218z" /></g><!-- u:c764757357ae -->
</svg>