<svg xmlns="http://www.w3.org/2000/svg" fill="none" height="26.0" viewBox="0.0 0.0 73.0 26.0" width="73.0"><clipPath id="a"><path d="m.404297.413818h72.2449v24.7506h-72.2449z" /></clipPath><g clip-path="url(#a)" fill="#ffffff"><path d="m17.9946 25.1352c-.4508.053-6.888.035-7.1684-.0282.3143-.2031.6699-.2415.9854-.36.323-.1207.6549-.2234.9817-.3339.328-.1106.6561-.2223.9854-.3329.3305-.1106.6611-.2223.9929-.3317.3218-.1061.6423-.2122.9654-.3126.3331-.1038.6486-.2449.9867-.3363.3368-.0914.6498-.2392.9854-.3362.3343-.0959.6636-.2076.9854-.3317.323-.1242.6761-.1817 1.0067-.3566v-10.2387c.2867-.0858.5572-.0361.8226-.0452.2805-.009.5623-.0022.844-.0022.2704 0 .5421-.0034.8126 0 .268.0045.5372-.0215.7926.0192.0776.115.0538.2211.0538.3215.0013.8914 0 1.7817.0025 2.6731 0 .0982-.0363.2065.0739.3058.2041-.141.3819-.3058.5998-.4288.313-.176.6486-.2696.9967-.3622.3268-.0869.6523-.0948.9841-.0993.6048-.0079 1.1683.1287 1.6929.3961.7676.3927 1.177.9884 1.2947 1.7771.1064.7098.0939 1.4184.0939 2.1293.0013.994 0 1.9881 0 2.9822 0 .1862.0213.3746-.0726.5698.2917.2359.5321.5055.8439.7109.0751.0497.144.1072.2104.1659.6273.5484 1.2533 1.0967 1.8807 1.6462.0676.0587.1402.1095.2178.158.144.088.2742.1941.3694.3453-.1265.0835-.2542.0564-.3719.0564-1.6565.0023-3.3143.0011-4.9709.0011-.313 0-.6248.0023-.9378 0-.1015 0-.2091.0226-.3143-.044-.0564-.1218.0175-.2505.0138-.378-.0151-.4039.0813-.8.1126-1.2005.0051-.0565.0163-.1129.0138-.1682-.02-.3667.0914-.7244.0964-1.09.0013-.1105.0238-.2234.0238-.3351 0-1.6135 0-3.2271 0-4.8395 0-.0925.0201-.1873-.0275-.2753-.1991-.0711-1.3461-.1016-2.17-.0587-.0713.0034-.149-.0056-.2003.0982.4458.1399.8903.2798 1.3047.4096.0952.0857.114.1658.114.2527v3.718c-.0426.097-.1002.1444-.1803.1794-.4483.1963-.884.4208-1.3461.5845-.4407.1568-.7988.4197-1.187.6442-.4545.2618-.909.5225-1.361.7865-.4433.2584-.8828.5236-1.3273.7797-.3919.2257-.7863.4468-1.182.6669-.1252.0699-.2204.1692-.3218.2459z" /><path d="m28.3463 4.25888c.1052-.00564.1327-.05529.1678-.10381.3005-.40847.7087-.68153 1.2095-.88463.5522-.22342 1.1219-.26743 1.7017-.25614.7663.01467 1.4812.21551 2.0622.67701.5635.44796.8402 1.04712.8514 1.71624.0226 1.33146.0088 2.66405.0101 3.99665 0 .35656.0012.7131 0 1.0697 0 .0925.0187.1873-.0376.2967-.2604.07-.5409.0237-.8176.0316-.2705.0079-.5422.0023-.8127.0023-.2817 0-.5634.0034-.8439 0-.2692-.0045-.5409.0203-.8064-.0169-.1064-.1005-.0651-.2189-.0651-.3273-.0025-1.27613-.0025-2.55118-.0025-3.82735 0-.22568-.0288-.44119-.149-.65107-.2016-.35317-.6974-.4457-1.1056-.40846-.2579.02369-.5722.12186-.745.30804-.1878.20085-.2617.53484-.2605.79211.0025 1.25699.0013 2.51398 0 3.77093 0 .1106.0263.2268-.0688.3431h-3.1917c-.0989-.1061-.0613-.2235-.0613-.3318-.0025-1.21973-.0088-2.43949.0037-3.65811.0025-.2426-.0626-.46489-.1465-.68266-.1001-.25952-.3268-.43555-.6198-.50438s-.7187-.07673-.9804.06658c-.0601.03272-.1127.07672-.164.1196-.1653.13766-.2918.26855-.3456.46827-.0639.24147-.1002.48519-.0977.73343.0101 1.15431.005 2.3075.0025 3.46177 0 .1005.0263.2065-.0325.3002-.2329.0553-2.9638.0677-3.3031.0147-.0889-.0971-.0513-.2144-.0513-.3228-.0026-1.97007-.0013-3.94019-.0013-5.9103 0-.33738-.0013-.67589 0-1.01327 0-.09253-.0188-.18844.0313-.27193.0538-.06319.1277-.06771.2016-.06771.9591 0 1.9182.00113 2.8774.00339.03 0 .0601.01128.1051.01918.129.26517-.025.56869.0965.83724.035-.00451.0651-.00112.0701-.01015.1552-.29225.4282-.47053.7325-.62398.616-.30917 1.2809-.43668 1.9758-.39606.5685.03385 1.1357.11397 1.6365.39154.2292.12638.4395.27645.6148.46376.1252.13427.2517.26742.3644.38703z" /><path d="m63.0038 10.9403c.0638-.0937.1615-.0858.2542-.0858h2.5643c.0739 0 .1465 0 .2179.0655.0663.1501.01.3453.1352.4953.124.1501.2642.2539.4608.316.5196.1647 1.0017.0914 1.5188-.0282.3932-.0914.576-.404.6361-.7323.0588-.3205.035-.6545.0075-.98171-.0025-.02257-.0313-.04401-.0639-.08576-.3706.30017-.8151.44007-1.2896.51457-.0414.0067-.0802.0259-.1202.0282-.7526.0417-1.5013.0225-2.2125-.2347-.2968-.1072-.5635-.2697-.8064-.46491-.4558-.36672-.8339-.78534-1.0455-1.30551-.5122-1.26151-.4095-2.813.3481-3.97747.3693-.56756.9052-.95008 1.5914-1.19042.5822-.20423 1.1745-.30917 1.7918-.30014.6248.00903 1.207.17151 1.7354.47165.1353.07673.2442.19295.3757.30015.1302-.16926.0225-.35092.1026-.52131.2192-.0756.4596-.02708.695-.03497.2391-.00903.4795-.00226.7187-.00226.2291 0 .4583-.00564.6874.00113.2354.0079.4758-.03385.6912.02708.0901.08575.0726.17377.0726.25614 0 2.26123.015 4.52246-.0125 6.78254-.005.4311-.0075.8756-.1603 1.3055-.0776.2167-.1828.4175-.2955.6127-.2316.4006-.5985.6895-1.0393.8993-.462.2201-.9553.3498-1.47.4435-1.0968.1974-2.2012.1241-3.298.0733-.71-.0327-1.4049-.2381-1.9897-.6477-.3055-.2143-.4833-.5088-.6248-.8237-.1189-.264-.149-.5416-.1427-.8248.0025-.1185-.0238-.2381-.0363-.3532zm3.6324-5.46691c-.1227.1072-.2229.24034-.2905.39493-.1302.29676-.1478.62285-.154.94218-.0038.25162 0 .5055.0651.74923.134.49761.5622.86206 1.1544.81919.0927-.00677.1879-.00113.2805-.0079.3318-.02144.5848-.16361.7613-.41524.129-.18505.1953-.38928.2379-.60254.0852-.42878.0676-.85755-.0088-1.28294-.0651-.36559-.2491-.66799-.6573-.82145-.4921-.18505-1.0343-.08688-1.3886.22454z" /><path d="m.448435 10.9276c.073875-.0576.12396-.07.176549-.07.916556 0 1.834356.0023 2.750906.0057.03757 0 .07513.027.12772.0473.00376.0012.10142.4322.13398.4864.09015.1467.20409.255.38064.3148.44075.1467.93408.1647 1.3861.0485.45577-.1162.82515-.396.8527-.8451.01252-.1964.02128-.395.00876-.5902-.01002-.1568.05634-.3069.04508-.45695-.06762-.0158-.09391.01128-.12396.03836-.33307.29559-.75503.40509-1.19828.49419-.42447.0858-.8527.0835-1.27341.0486-.97916-.0813-1.82309-.4356-2.43913-1.14533-.308025-.35431-.499599-.76842-.663627-1.19719-.25418-.67025-.237903-1.35855-.149002-2.03218.077631-.589.298004-1.16559.666129-1.679.96413-1.34613 3.099-1.73541 4.68418-1.15318.19408.07109.36187.18167.51087.31707.06511.05868.11519.13428.22288.16361.11144-.05867.06511-.16135.07387-.24711.00877-.08237-.01753-.16925.04132-.24372.22038-.05304 2.41409-.06771 2.801-.01919.09766.08237.0626.1907.06386.28999.0025.73118.0025 1.46348.00125 2.19466-.00251 1.679 0 3.35687-.01503 5.03587-.00375.3915-.09015.7808-.26044 1.1464-.293.6296-.81388 1.0562-1.50004 1.3179-.38065.1456-.77757.2471-1.18826.3205-1.07683.1918-2.15866.079-3.23924.0891-.62481-.1241-1.26965-.1929-1.81432-.5337-.31053-.1941-.57598-.4276-.742512-.7413-.236651-.4468-.37188-.9095-.319291-1.4048zm5.632045-5.11826c-.0288-.06657-.06261-.13202-.10268-.19408-.2692-.41185-.63983-.40959-1.10813-.45021-.40944-.03498-.93783.32045-1.09936.81016-.12646.38364-.12771.77179-.12396 1.16446.00251.27645.10268.52469.2329.76842.08765.16587.23414.2708.40443.36784.24166.13653.50085.09817.75628.10155.65236.00903 1.00796-.47729 1.14319-1.00198.08514-.33174.07888-.67814.03381-1.01665-.02505-.18618-.06136-.37462-.13523-.54951z" /><path d="m38.5905 10.4669c-.0801.0925-.02.1997-.0964.3024-.2416.0722-.5121.0237-.7776.0316-.2704.009-.5421.0022-.8126.0022-.2604 0-.5209.0057-.7813-.0011-.268-.0068-.5372.0304-.7976-.0248-.0651-.2314-.0726-10.048079-.0125-10.321142.2329-.049648 2.9387-.058675 3.2718-.010155.0726.135403.0701.284346.0701.43329.0012.778567.0025 1.557137.005 2.335707 0 .10042-.025.20536.0401.29337.1001.03385.1715.00226.2416-.04401.7613-.51114 1.6115-.57884 2.5155-.42877.4057.0677.7801.19859 1.1219.39718.7137.41411 1.2021.99521 1.4876 1.71172.2904.72779.3142 1.48266.2541 2.24543-.0325.42201-.1026.83838-.2642 1.23556-.1778.4378-.3969.85417-.7312 1.2254-.3481.38702-.7563.68602-1.2571.88122-.2154.0835-.4408.1478-.6749.193-.2442.0474-.4833.0891-.735.0948-.73.0146-1.3911-.1682-1.9921-.5349-.0151-.009-.0389-.0079-.0764-.0158zm2.2676-4.55974c-.144-.30466-.3806-.56982-.7387-.66347-.452-.11848-.9566.03272-1.2183.38138-.248.33287-.3081.70974-.3506 1.09-.0451.40282-.0076.80903.1214 1.19493.1816.54048.3794.75148.9228.82709.4057.05641.7964-.02032 1.0531-.34528.4082-.51905.4582-1.30439.3744-1.91708-.0251-.18393-.0789-.38365-.1653-.56757z" /><path d="m57.7715 21.7423c-.1114.0824-.0776.1907-.0751.2968-.0037.835 0 1.6688-.0025 2.5038 0 .1016.025.2065-.0313.3013-.2617.0587-2.9362.0598-3.1992.0034-.0638-.237-.0701-10.0086-.0075-10.2478.2617-.062 2.9287-.0643 3.1954-.0067.0977.1229-.0225.2888.1165.4039.3168-.2133.6523-.4367 1.033-.5292 1.1958-.3148 2.6056-.1072 3.4972.712.3994.3509.6748.7989.8677 1.266.1991.483.293.9569.3193 1.4725.0638 1.2796-.1027 2.6393-1.147 3.5995-.0488.0451-.0989.088-.1515.1286-1.1757.8926-3.2167 1.0325-4.4125.0971zm2.3978-3.3591c-.0025-.3475.0101-.6883-.1151-1.0245-.2142-.5834-.9341-.9456-1.569-.6714-.8552.3611-.8426 1.3969-.7688 2.1281.0201.1658.0464.3317.0814.4987.0777.3814.4195.7639.8402.8519.6398.158 1.2183-.2493 1.4199-.7842.1352-.3148.1202-.6646.1114-.9975z" /><path d="m19.0113 10.7525c-.0426.0542-.1065.0496-.1691.0519-.6548.0338-2.7985.0079-3.0301-.0372-.0977-.1129.0125-.2787-.1089-.404-.1052.0463-.2066.088-.3056.1343-.462.2166-.9453.3577-1.4649.4321-.3519.0508-.7.1072-1.0518.0802-.6549-.0508-1.286-.158-1.8269-.5507-.5559-.4039-.8552-.90831-.9779-1.53455-.12268-.6285.0539-1.18252.3919-1.71285.263-.41411.69-.66799 1.1532-.86996.268-.11622.561-.17377.849-.24599.6023-.15007 1.2233-.18166 1.8331-.28321.3143-.05191.6311-.09817.9466-.14895.1377-.02256.2529-.07334.3556-.1354.0138-.34077-.2216-.62624-.5497-.70071-.328-.07447-.6473-.08237-.9829-.01693-.2867.05529-.4245.21213-.5259.42765-.0275.0598-.0138.13202-.0651.18505-.1027.08576-.2316.07222-.3556.07335-.6248.00564-1.2509.00902-1.8757.01466-.2792.00226-.5584-.01466-.8164.03385-.0976-.04851-.1051-.11622-.0914-.18166.1265-.57095.3644-1.09.8502-1.49621 1.0643-.88914 2.6996-.94895 4.0631-.89704.4796.01805.9604.04965 1.4275.15233 1.073.23695 2.0196.93766 2.1073 1.98252.0801.95573.025 1.91145.0388 2.86829.0088.63753.0075 1.27618 0 1.9137-.0038.26746.0326.52246.1728.76166.02.035.0275.0699.0113.1072zm-5.5332-1.86744c.0689.03272.1478.04965.2254.06093.4758.07109.9767-.0677 1.3435-.34754.3669-.27983.6537-.78421.541-1.20734-.0639-.04739-.1378-.03836-.2054-.0158-.4821.16587-1.0104.18618-1.4863.36898-.4495.17151-1.0643.72327-.4733 1.10917.0188.01242.0376.02257.0576.0316z" /><path d="m50.407 16.8835c-.1264-.255-.1452-.4965-.4457-.651-.2129-.1095-.4658-.1388-.7112-.1388-.278 0-.576.0428-.7763.2155-.1027.088-.2029.4931-.3581.4998-.9579.0429-1.9646.079-2.9663.0598-.0852-.1105-.0589-.2166-.0338-.3125.1214-.4581.3168-.8914.6811-1.2333.3018-.2832.6737-.4965 1.0794-.6488.3055-.1151.6298-.1704.9503-.2404.9066-.1963 1.8256-.1184 2.7372-.0902.7074.0214 1.3748.2155 1.9808.589.5472.3374.8252.7864.9479 1.3518.0488.2234.0613.4445.0613.6691.0013 1.3879.0038 2.7757 0 4.1636 0 .3227.0151.6375.2104.9219.0138.0203.0062.053.0087.079-.2178.0575-2.712.0778-3.1816.0259-.144-.132.0163-.334-.1315-.4818-.164.0327-.2679.1614-.4169.2212-1.0092.4017-2.1624.5608-3.2543.3306-.9629-.2031-1.6878-.844-1.927-1.7151-.1715-.6251-.1014-1.2311.2429-1.7919.4195-.6826 1.1645-1.0798 1.9896-1.2626 1.0931-.2426 2.2363-.2448 3.3131-.563zm-.1051 1.8765c-.1929-.0937-.4295.0383-.6161.0925-.2354.0677-.472.1309-.7099.1884-.1941.0474-.3907.0914-.571.1693-.4708.2042-.5634.5371-.308.9365.7325.5225 2.3677-.1839 2.205-1.3867z" /><path d="m64.6123 24.7397c-.0025-.7075-.005-1.415.0012-2.136h.7726c.2492 0 .5021.0248.7488-.0869.0976-.1602.0776-.3407.0163-.5077-.3494-.949-.6937-1.9002-1.0731-2.8401-.1415-.3498-.2855-.703-.3994-1.0562-.1365-.4197-.3081-.8293-.4621-1.2412-.2028-.5393-.4094-1.0787-.616-1.6169-.0839-.2166-.1991-.4288-.2041-.686h3.382c.0738.0395.1389.0959.1427.1726.0263.4412.2316.8497.283 1.2875.0213.1828.1002.3599.1415.5427.1452.6499.3017 1.2976.4645 1.9442.0488.1952.0601.4028.1703.5935.1202-.1298.1878-.3453.2654-.7301.0514-.2572.1278-.51.1929-.765s.1365-.51.1928-.7661c.0538-.246.1465-.483.1878-.7335.0426-.2584.1202-.5123.1866-.7661.0663-.2528.1402-.5055.2078-.7515.2404-.0542 2.9751-.07 3.3895-.0203.0651.1117.0526.2347.0025.3464-.3305.7458-.5609 1.5233-.8752 2.2725-.1377.3306-.2654.6657-.3831.9986-.1516.4265-.3381.8417-.4721 1.2739-.0977.3137-.2379.6161-.3556.9253-.1941.5111-.3769 1.0256-.5797 1.5345-.2517.6308-.4433 1.283-.8339 1.8641-.3569.5292-.8728.8699-1.5226 1.0527-.0877.0249-.1853.0215-.2792.0237-.73.0181-1.4588.017-2.1888-.0045-.1715-.0045-.3255-.0508-.5071-.123z" /><path d="m56.7407 10.7556c-.293.061-2.9963.0644-3.2768.0136-.0676-.2268-.0701-7.30728-.0012-7.54423.2379-.04739 2.7359-.05529 3.0627-.00677.1127.23357-.0038.49422.0701.73118.1164.04175.1577-.03498.2116-.08802.2642-.25613.5684-.47278.9253-.60592.5923-.22003 1.2158-.33964 1.8556-.27194.5335.05642 1.0706.15684 1.5239.44006.3068.19182.586.42088.7713.72102.1052.17038.1866.35318.283.52695.0576.10381.0613.21551.0914.32383.2053.75826.0964 1.52893.1089 2.29283.0175 1.0505.005 2.10101.0038 3.15041 0 .1015.02.2065-.0251.3024-.0538.0632-.1302.0598-.2016.0609-.9791 0-1.9595 0-2.9387 0-.0614 0-.1265.0034-.1853-.0485-.0664-.0948-.0351-.2099-.0351-.3193-.0025-1.28525-.0012-2.56932-.0025-3.85452 0-.18731-.0087-.37123-.0964-.54951-.0851-.17377-.2103-.29789-.4044-.36784-.3844-.13766-.7701-.13315-1.1557-.00339-.3331.11171-.4533.35995-.5197.64881-.0826.36107-.0676.72666-.0676 1.09112v3.03863.3182z" /><path d="m38.3844 18.8879c-.1064.0835-.2367.0541-.3581.0541-1.6466.0012-3.2918 0-4.9384 0h-.4057c-.0388 0 .0426.4469.0551.4886.0526.1636.1428.3148.2592.4491.3456.4017.9604.4604 1.475.3475.1052-.0225.2091-.053.3018-.1038.1778-.097.3118-.2663.442-.4096.0513-.0575.2178-.3971.3155-.3723.7275.1771 2.5043.8869 2.6908 1.0798-.2817.4525-.6836.8102-1.1407 1.1239-.2316.1579-.457.3272-.7325.422-.3355.1162-.6573.2539-1.0142.3317-1.2446.2742-2.5931.2505-3.7513-.2764-.5622-.2551-1.0718-.5902-1.4325-1.0878-.2329-.3216-.4407-.6477-.6022-1.0031-.2029-.448-.293-.914-.3281-1.3901-.0438-.5856.0413-1.1634.263-1.7106.1677-.4164.3831-.8158.7012-1.1724.2454-.2753.5233-.5123.8376-.7052.3494-.2144.7363-.3837 1.142-.4999.6173-.1771 1.2508-.2697 1.9032-.2358.7437.0384 1.4474.1907 2.1148.4999.3656.1692.6974.3813.9829.633.3306.2922.6035.6364.7914 1.0279.3919.8169.4445 1.5797.4532 2.4531 0 .0169-.0162.0338-.0263.0519zm-3.4897-2.1597c-.2579-.4006-.909-.6195-1.3698-.4638-.4833.1637-.7725.5349-.755.9546.0501.0384.1114.0429.174.0418.6561-.0034 1.3122-.0057 1.9684-.0113.025 0 .05-.0282.0839-.0485.03-.1738-.0126-.334-.1015-.4728z" /><path d="m14.5045 16.4548c-.3368-.0881-.7087.0293-1.0518-.0632-.0826-.2268-.0864-1.38-.005-1.635.3469-.114.735.0304 1.1207-.0993.0025-.3848.005-.7673.0062-1.1498.0013-.3814 0-.7628.0088-1.1645.591-.0598 1.1407-.0226 1.6879-.0293.5496-.0068 1.0993-.0012 1.6215-.0012.1039.1264.0763.2325.0763.3329.0013.5721-.0012 1.1442 0 1.7162 0 .1005-.0238.2077.0777.3295.4107.0677.8602-.009 1.3272.044.0413.5541.0263 1.0912.0075 1.6508-.4658.0982-.9265-.009-1.3535.0643-.0877.0734-.0739.1524-.0739.2257-.0038.281 0 .5631-.0063.844-.0112.5529-.0262 1.1047-.0388 1.6576-.0025.1128.0038.2234.0263.3351.0639.3024.2379.466.5735.4999.2179.0225.437.0191.6549-.0057.0513-.0056.1014-.0259.1527-.0011.0651.0293.0827.0824.0827.141 0 .6094-.0026 1.2187-.0063 1.828 0 .0169-.0138.035-.0225.0575-.0852.0632-.1916.1117-.3018.1264-.8039.1061-1.6152.1884-2.4216.1004-.5835-.0632-1.1482-.2234-1.5877-.6307-.2755-.255-.4057-.5619-.4846-.8926-.0375-.1545-.0463-.3159-.0475-.475-.0038-.8068-.0113-1.6124.0075-2.4192.0087-.3645.0263-.73.0263-1.0956 0-.0914.0263-.1885-.0551-.2878z" /><path d="m44.88.43335h3.3156c.0651.24034.0701 10.06945.01 10.32225-.2179.0587-2.93.0733-3.2943.0192-.0063-.0068-.0138-.0136-.0201-.0215-.0062-.0067-.015-.0146-.0163-.0225-.0075-.0373-.0175-.0734-.0175-.1106 0-3.34787 0-6.69571 0-10.043549 0-.036107.0113-.072215.0226-.143301z" /><path d="m38.9071 22.1183c-.0588-.2076-.0814-7.103-.025-7.5047.0413-.053.1027-.0598.1665-.0598h2.9074c.0389 0 .0789.0147.1227.0237.0915.149.0051.3182.0727.4694.1277-.0124.2254-.0666.3168-.1275.4182-.2764.8777-.4378 1.3986-.4897.3005-.0305.5947-.0643.8852-.0372.0176.0158.0251.0225.0313.0293.0063.0068.0138.0147.0151.0237.0075.0361.0175.0733.0175.1106v2.3966c-.0626.0485-.149.026-.2304.0271-.457.0023-.9316-.0214-1.3698.1151-.5021.1557-.7676.4412-.9191.888-.0613.1805-.0576.3701-.0576.5574v3.2632c0 .1027.0188.2065-.0238.3036-.0538.0631-.1289.0598-.2016.0598-.9691 0-1.9382 0-2.9074 0-.0626 0-.1252 0-.1991-.0497z" /><path d="m49.1973 10.7815c-.1002-.0892-.0801-.1873-.0801-.2787 0-2.34363 0-4.68723 0-7.02971 0-.08237-.0175-.17038.0526-.24034.2203-.05642 2.8473-.07447 3.2693-.02257.1001.09253.0613.21101.0613.3182.0025 1.58422.0013 3.16843.0013 4.75265v2.16537c0 .1015.0212.2064-.0439.3328-.2579.0508-.5371.0169-.8138.0226-.2705.0056-.5422.0011-.8127.0011-.2817 0-.5622.0045-.8439-.0011-.2692-.0057-.5397.0259-.7901-.0203z" /><path d="m52.4797 2.48133c-.2705.05981-2.9938.06545-3.2918.01354-.0652-.04513-.0727-.11057-.0727-.17715 0-.59013 0-1.18139.0038-1.771521 0-.027081.015-.053033.03-.107195.3619-.045134.7338-.014668 1.1044-.02031.3644-.005642.7287-.001128 1.0944-.001128.3718 0 .7437.001128 1.1344.002256v2.061508z" /></g><!-- u:22adcc9d8918 -->
</svg>