<svg xmlns="http://www.w3.org/2000/svg" fill="none" height="28.0" viewBox="0.0 0.0 93.0 28.0" width="93.0">
    <clipPath id="a">
        <path d="m.548828.000061h92.4142v27.5781h-92.4142z" />
    </clipPath>
    <g clip-path="url(#a)">
        <path d="m6.0092.0510326c.32774.0468782.65225.1252774.9614.2440894.27602.106284.5387.247323.77955.419075.47606.339863.862.799353 1.11659 1.325923.2255.46636.34553.98.35967 1.49727-.51081.1079-1.03172.21782-1.59062.33583-.08487-.27965-.15033-.51566-.22833-.74763-.28612-.85067-.81754-1.44069-1.74783-1.57486-.91614-.13174-1.71711.12932-2.24813.89149-.3237.46515-.5888 1.00829-.72984 1.55506-.36614 1.4209-.36008 2.86684-.03355 4.30067.07638.33542.19843.66801.34836.97838.51364 1.06247 1.46494 1.55307 2.6179 1.37887 1.09517-.1657 1.7745-.87049 1.9604-2.05456.04405-.28168.04405-.56982.0695-.92383h-2.45221v-1.44352h4.07881v5.70261h-1.40312c-.04647-.3953-.09214-.7861-.1378-1.1781-.05375.0142-.10911.0122-.12124.0344-1.02 1.8408-4.41382 1.8893-5.82461-.0113-.45787-.6171-.77389-1.29443-.944835-2.03276-.412609-1.78096-.394019-3.56557.109921-5.32431.172564-.60295.423524-1.18892.791674-1.69933.36816-.5104.84866-.924629 1.40715-1.211152.72944-.375025 1.56194-.5459686 2.37947-.50798114.12326.00565774.24611.01616484.36856.03071324.03799.0044454.07557.009699.11316.0149525z" fill="#ffffff" />
        <path d="m92.9618 8.12054c-1.3546-.01252-2.7092-.02546-4.0642-.03637-.4021-.00323-.8042-.0004-1.18-.0004-.3136.95777.2238 2.18713 1.0866 2.61833.9699.4841 1.9843.1366 2.818-1.00467.3681.15437.7512.31437 1.1594.48537-.0885.4336-.3496.7201-.6155.9913-1.2265 1.252-3.9127 1.3279-5.1776-.1847-.5827-.6967-.8252-1.51586-.9169-2.39482-.1314-1.25803.0303-2.4603.6696-3.57729 1.1817-2.06385 4.2712-1.90947 5.3368-.46433.4143.56172.6264 1.1865.7327 1.86259.0291.18509.0994.36412.1511.54597zm-5.302-1.13477c.4485.17013 3.1545.1766 3.7046-.0101 0-.18832.0202-.39847-.0033-.60376-.135-1.18044-1.1275-1.89655-2.2146-1.60639-.887.23641-1.53 1.19661-1.4867 2.22065z" fill="#0080fb" />
        <path d="m25.8946 11.948h-1.7252c0-.2259 0-.4304 0-.6349 0-1.60276 0-3.20591 0-4.80866 0-.15438.0052-.30956-.0041-.46353-.0448-.7452-.4861-1.1663-1.2398-1.16347-.7436.00283-1.3235.37058-1.8893.88665v6.15721h-1.6807v-8.28451h1.5708c.023.24409.044.46918.0739.78359.1867-.13457.3306-.23803.4745-.34148.6652-.4801 1.4007-.73591 2.2287-.68337.8721.05536 1.5518.44049 1.9895 1.23419.1637-.1463.2902-.26389.4219-.37584.5755-.491 1.2374-.78803 1.9939-.85633 1.5664-.14144 2.622.79854 2.6475 2.36654.0133.81107.0024 1.62214.0024 2.43321v3.1287.607h-1.722c0-.2186 0-.4247 0-.6304 0-1.64157-.0364-3.28432.0105-4.92425.0433-1.51101-1.1133-1.72034-2.0081-1.35542-.4025.16407-.7605.43807-1.1448.66599v6.25948z" fill="#ffffff" />
        <path d="m70.3113 11.8712c-.2004.0145-.352.0331-.5039.0351-.3459.0049-.6915.0016-1.1021.0016-.5063-1.96844-1.005-3.90822-1.5037-5.84841-.0489.00323-.0978.00606-.1467.00929-.3423.93393-.5254 1.91433-.7771 2.87452-.2534.96585-.5068 1.9317-.7675 2.9262h-1.6007c-.6967-2.69302-1.3974-5.40144-2.1244-8.21009.3317-.00606.573-.01213.8143-.01415.2307-.00202.4619-.0004.7573-.0004.4579 1.9705.9121 3.92645 1.3667 5.8824.0522.00283.1043.00566.1568.00849.3306-.94484.5149-1.93413.7772-2.89918.2667-.9812.5039-1.97049.7565-2.96706h1.5174c.4923 1.94383.9881 3.90301 1.4844 5.86179.0598 0 .1196-.0004.1794-.00081.4712-1.94706.9428-3.89371 1.4181-5.85815.2154-.01091.3863-.02425.5577-.02667.2663-.00404.533-.00121.866-.00121-.7153 2.76783-1.4132 5.46817-2.1261 8.22594z" fill="#0080fb" />
        <path d="m34.3778 11.2658c-.0796.2643-.1342.4441-.2004.6644h-1.3922v-11.660974h1.6734v3.805214c.5771-.22671 1.0907-.5096 1.6395-.6268 1.2787-.27318 2.5064.34593 3.1037 1.50698.1661.32289.3039.67286.3803 1.02687.2724 1.26409.2639 2.529-.1023 3.77773-.1705.58108-.4493 1.10648-.8761 1.54698-1.0584 1.0931-2.7795 1.1817-3.9426.2008-.0728-.0614-.1451-.1232-.2833-.2404zm.101-1.1922c.3249.198.6313.4421.9788.5856.8673.3576 1.7034.0731 2.1019-.77228.6385-1.35542.6526-2.76257.0634-4.1382-.3314-.77349-1.0976-1.08952-1.9236-.90524-.4862.10831-.8919.34795-1.2205.73591v4.49461z" fill="#ffffff" />
        <path d="m61.9924 11.8772h-1.6775c-.1423-.5027-.2878-1.0143-.4312-1.5267-.139-.49671-.2752-.99419-.4199-1.51672h-4.0109c-.2789.99091-.563 2.00042-.8539 3.03532h-1.4642c-.0177-.413 2.8661-10.83851 3.2047-11.558248h2.3738c1.0867 3.833908 2.1766 7.678318 3.2787 11.566348zm-4.6094-10.23557c-.5306 1.96565-1.0427 3.863-1.583 5.86502 1.1384.05011 2.175.07638 3.2136-.01091-.0255-.666-1.3457-5.4605-1.6306-5.85411z" fill="#0080fb" />
        <path d="m15.7473 6.54405c.2485-1.22247-.651-1.88159-1.7309-1.73449-.75.10224-1.2653.53587-1.6738 1.19943-.4126-.21337-.8164-.4223-1.2912-.66801.1536-.24813.2639-.48939.4296-.68337.9278-1.08628 2.1531-1.35866 3.5122-1.23742.1536.01374.3063.04607.4579.07759 1.2915.26834 2.0489 1.1671 2.0703 2.48939.0158.98404.0036 1.96848.0036 2.95252v2.98891h-1.5546c-.0594-.2013-.1225-.4147-.1997-.6761-.164.1281-.2917.2352-.4271.3318-.8826.63-1.8562.767-2.8697.4299-.8753-.2909-1.4193-.9214-1.5579-1.8468-.1447-.96705.1823-1.76196 1.0035-2.30106.3657-.24005.7848-.41867 1.203-.55446.8616-.27965 1.739-.51202 2.6244-.76823zm.0497 1.24025c-.725.22631-1.3829.42393-2.0343.63973-.1993.06587-.3965.16043-.5691.27884-.4154.28652-.6227.68499-.5164 1.19499.1034.49504.4021.81554.9072.94124.6685.1665 1.7378-.2296 2.1132-.8018.0501-.0764.0937-.1746.0946-.2631.008-.63164.0044-1.26369.0044-1.9899z" fill="#ffffff" />
        <path d="m51.5286 8.1443h-5.195c-.1916 1.0887.3342 2.1693 1.1816 2.5351.9752.4206 1.8445.0893 2.698-1.06248.4061.17175.8256.34916 1.3049.55158-.3553.7885-.8737 1.345-1.6274 1.684-2.388 1.0742-4.8014-.2481-5.2427-2.89713-.1762-1.05839-.1075-2.11598.2457-3.14124.6446-1.87068 2.369-2.80299 4.2853-2.30107.9849.25824 1.6557.89594 2.0247 1.8331.3447.87614.3964 1.79228.3249 2.79774zm-5.1986-1.14892h3.5376c.1738-1.19216-.4631-2.12568-1.5041-2.22146-1.1243-.10345-2.0469.89311-2.0335 2.22146z" fill="#ffffff" />
        <path d="m77.7131 6.56748c.181-1.13761-.3779-1.8238-1.4589-1.84563-.6349-.01293-1.1683.22752-1.6056.67974-.1454.15033-.276.31562-.4461.51162-.3556-.19075-.706-.37867-1.1251-.60336.1192-.20853.198-.39968.3221-.55405.4344-.5395.9792-.9311 1.6549-1.11295.8575-.23035 1.7223-.2352 2.5787 0 1.0022.2752 1.6072.98969 1.6989 2.0299.0457.51728.034 1.03981.042 1.56032.0223 1.42614.0417 2.85233.0594 4.27843.0013.1107-.0173.2219-.0295.3633h-1.435c-.0719-.2122-.1483-.4381-.2417-.7133-.1673.1197-.2901.2033-.4081.2926-.9186.6955-1.9281.8564-3.0051.4603-1.5486-.569-1.9519-2.63526-.7476-3.7563.4344-.40452.9553-.6474 1.5199-.80743.687-.19479 1.3756-.38594 2.0614-.58477.2001-.05819.394-.1378.5654-.19883zm.0586 1.1477c-.6478.18994-1.1639.33462-1.6755.49384-.2566.07961-.5104.17458-.7557.28329-.1386.06143-.2675.15438-.3839.25298-.3888.32977-.5157.75248-.3993 1.24349.1184.49792.4534.79612.936.92142.6789.1762 1.7599-.2453 2.1616-.8289.0525-.0764.1103-.17052.1115-.257.0093-.6668.0053-1.33361.0053-2.10871z" fill="#0080fb" />
        <path d="m41.2852 11.9366v-11.671062c.1972-.013336.3657-.031925.5346-.03435.3629-.00485.7262-.001617 1.1223-.001617v11.707029z" fill="#ffffff" />
        <path d="m85.6898 3.59073v1.33401c-.1427.04607-.2801.11477-.424.13336-.864.11396-1.5433.5783-2.1923 1.11214-.2425.19964-.2506.45707-.2502.73268.0028 1.42857.0012 2.85714.0012 4.28608v.6733h-1.5179v-8.21701h1.3894v1.45807c.0457.02021.0913.04082.137.06103.1184-.10265.2429-.19883.3536-.30875.6563-.65104 1.3724-1.19257 2.3342-1.29481.036-.00364.074.01212.1694.0299z" fill="#0080fb" />
        <g fill="#ffffff">
            <path d="m63.6186 21.4811c-.1887.0639-.3483.118-.5456.1847-.2117-.4971-.5512-.8406-1.0745-.9747-.4352-.112-.845-.0667-1.2241.1802-.3015.1964-.4393.4777-.4138.8378.0246.3507.2259.5762.5395.6853.3645.1269.7415.2167 1.1125.325.2967.0864.6042.1487.8863.2695 1.3118.5625 1.1016 2.1415.373 2.7355-1.2144.9897-3.2407.472-3.7899-.9881-.019-.0501-.0133-.1095-.023-.1984.1713-.0376.3342-.0731.5104-.1115.0626.0994.1228.1741.1616.2586.3989.866 1.4605 1.1093 2.2983.7982.4138-.154.6688-.4511.6918-.9105.0215-.4252-.1818-.7557-.6405-.9299-.3778-.1435-.7791-.2263-1.1695-.3379-.2231-.0638-.4506-.1164-.6664-.1996-.5795-.2231-.8915-.6519-.9461-1.2702-.0557-.6365.1673-1.1444.7198-1.4738.8858-.5278 2.6967-.4756 3.2002 1.1206z" />
            <path d="m74.0664 21.7571h.4938c.0223.2215.0425.4195.0708.7032.1135-.137.1802-.2012.2287-.2776.4647-.7359 1.6755-.7695 2.291.0331.6433.839.6429 2.5549-.0114 3.3845-.5875.7452-1.5207.8042-2.2109.1314-.0505-.0493-.0441-.156-.0643-.236-.0577.0396-.1155.0792-.1733.1188v1.9264c-.2292.0134-.409.0243-.6244.0368zm.6264 2.1273c0 .2304-.0247.464.0048.6907.0768.5932.5767 1.0786 1.0956 1.0915.4975.0125.9319-.354 1.0653-.9614.1378-.6268.1564-1.2617-.1217-1.865-.3762-.8171-1.2616-.8919-1.7975-.1677-.274.3702-.2784.7856-.2465 1.2115z" />
            <path d="m7.10869 20.196h.8139c.61225 1.935 1.2249 3.8699 1.85209 5.8525h-.69105c-.19115-.5383-.38795-1.0939-.59244-1.6698h-2.14548c-.16771.5367-.33825 1.0822-.51849 1.6585h-.55769c.61912-1.966 1.22449-3.8872 1.83997-5.8412zm.4021.917-.12568-.0154c-.27238.8786-.54476 1.7576-.8333 2.6887h1.78177c-.28531-.9283-.55405-1.8008-.82238-2.6733z" />
            <path d="m13.8779 26.0272c-.0461.0129-.0982.0388-.1512.0408-.0937.0032-.1883-.0081-.3132-.0154-.0291-.1745-.0561-.3362-.0832-.4978-.036-.0259-.072-.0522-.1079-.078-.0582.0986-.0986.2154-.1778.293-.6171.6057-1.5199.5872-2.1172-.0352-.8418-.8773-.8143-2.8373.0521-3.6815.5581-.544 1.4043-.5804 2.0024-.0853.0841.0699.1645.1439.3229.2829v-2.0178c.2069-.0243.3686-.0433.506-.059.1632.1742.1968 5.0099.0671 5.8525zm-.5226-2.0441c-.0303-.3463-.0307-.6179-.0812-.8801-.1099-.5715-.5359-.9453-1.0657-.9683-.4801-.021-.8801.2736-1.0596.8163-.2049.6199-.1988 1.2508-.0085 1.8735.1698.5545.508.8398.9679.8475.453.0072.9404-.3205 1.0944-.801.0978-.3059.1123-.6381.1527-.8875z" />
            <path d="m28.6831 23.9548h-2.9743c-.1758.7674.0945 1.3667.6951 1.6209.6187.2619 1.1416.0416 1.6649-.7242.0724.0069.1653.0069.2542.0263.0728.0157.1411.0541.2187.0857-.0033.0679.0109.1297-.0105.1749-.3419.723-.9271 1.0665-1.7176 1.0568-.7961-.0093-1.3687-.3879-1.6852-1.1133-.3067-.7024-.3152-1.4286-.0614-2.1483.3168-.9 1.0637-1.387 1.9645-1.3041.864.0792 1.4706.6862 1.6181 1.6342.0319.2049.0218.4163.0343.6919zm-.721-.5019c.0097-.8277-.4081-1.328-1.0709-1.3381-.704-.0109-1.201.5318-1.1933 1.3381z" />
            <path d="m82.1238 23.8214c.0295.5581-.099 1.1461-.4296 1.5931-.4389.5932-1.0329.8559-1.7652.7654-.6074-.0752-1.0802-.4458-1.3348-.9974-.3225-.6995-.3605-1.5381-.1124-2.2663.0158-.0461.0328-.0917.0506-.137.2246-.5633.708-.9929 1.3049-1.1178.1353-.0283.274-.0416.4122-.0404.8276.0065 1.4423.4603 1.7082 1.3017.057.181.0946.3673.1269.554.0194.1128.0327.2279.0388.3451zm-3.1259.0457c-.0008.021-.0012.0416-.0012.0626-.0024.3989.1034.7804.2756 1.1384.3843.8002 1.4265.8333 1.863.0615.4356-.7703.4154-1.5927.0505-2.3856-.1806-.3932-.5451-.6013-.9856-.5956-.443.0056-.7885.2303-.9546.6344-.1418.3443-.236.7117-.2477 1.0847z" />
            <path d="m49.7274 24.9845c.1616-.038.3233-.0756.4732-.1112.453.6774 1.039.9271 1.7458.7634.3746-.0865.6353-.3374.6632-.6381.0291-.3107-.1641-.567-.5791-.689-.3318-.0974-.679-.1435-1.0184-.2154-.407-.0861-.7808-.2328-1.0127-.607-.2785-.449-.188-1.056.1778-1.4411.6106-.6429 2.6053-.6385 2.866.6207-.1544.0497-.3124.1007-.5019.1621-.2756-.487-.683-.7412-1.2407-.6814-.1689.0182-.3423.0696-.4946.1439-.2279.1111-.3714.3282-.3023.5674.0517.1794.1992.3871.3613.4659.2534.1233.5556.1435.8349.2163.316.0824.6531.1281.94.2715.7876.3949.8583 1.4997.1527 2.0263-.6975.5205-2.0008.4785-2.6627-.0934-.2211-.1907-.4134-.4061-.4029-.7613z" />
            <path d="m64.9057 21.7608h.6252v1.6262c0 .4433-.0121.887.0061 1.3299.0169.4106.1774.7537.5948.9073.3605.1329.7852-.0174 1.0806-.3722.2841-.3419.3908-.7444.39-1.1821-.0012-.7504 0-1.5005 0-2.2986.1952-.0174.3556-.0319.565-.0505v4.318h-.4704c-.0251-.1823-.0505-.3661-.0849-.6151-.1386.1451-.2384.2494-.3382.3536-.3856.4021-.862.5113-1.3821.3714-.5399-.1455-.8297-.5435-.9251-1.0778-.0436-.2449-.0565-.4978-.0586-.7476-.0068-.8434-.0024-1.6872-.0024-2.5621z" />
            <path d="m37.2236 26.057h-.7048v-5.2536h-1.6039c-.0174-.215-.0307-.377-.0477-.5839h3.9551c.0142.1447.0295.3055.0534.5472h-1.6521v5.2899z" />
            <path d="m24.2334 23.107c-.1572.0291-.3152.0582-.4764.0881-.0792-.1968-.1277-.3645-.2098-.5137-.3714-.6724-1.2285-.7242-1.6831-.1075-.4506.6115-.4571 2.0336-.0122 2.6547.4547.6349 1.2831.5884 1.6666-.0986.0926-.1657.1564-.3475.2425-.5419.1625.042.3076.0796.4599.1192.0049.0748.0247.1342.0101.1835-.2429.8389-.7416 1.2717-1.494 1.3029-.8075.0335-1.4306-.3916-1.7014-1.2156-.2619-.7966-.2538-1.6008.1059-2.3714.3411-.7307 1.0192-1.079 1.8064-.9639.7343.1075 1.1304.5464 1.2855 1.4638z" />
            <path d="m14.7695 21.7515h.6887c.3778 1.1158.7629 2.2534 1.1481 3.391l.1075.0049c.3758-1.1247.7516-2.249 1.1331-3.3894h.5448c-.4914 1.4678-.9651 2.8826-1.4399 4.3007h-.6846c-.4853-1.3955-.9751-2.8038-1.4977-4.3068z" />
            <path d="m86.4432 22.2648c-.3019-.0243-.5096-.0408-.744-.0594v-.4345c.2259-.0299.449-.0598.721-.0961.0177-.3294.0347-.6507.0541-1.0091.1722-.0247.3326-.0473.5302-.0756.0219.3795.0412.7181.0631 1.0972.2881.021.5504.0404.8603.063.0178.139.0352.2773.0566.4421-.3237.0283-.6045.053-.9351.0821 0 .9646-.017 1.9034.0085 2.8405.0101.3617.2336.5371.6074.5779.1685.0182.3406.0033.5459.0033v.4704c-.2053.0145-.3948.0404-.5839.0388-.7472-.0065-1.1465-.3767-1.1728-1.13-.0246-.7116-.0093-1.4245-.0113-2.137-.0004-.2077 0-.4158 0-.674z" />
            <path d="m31.6348 20.2147h.5419v7.3283h-.5419z" />
            <path d="m48.2637 20.2126h.5948v5.8311h-.5948z" />
            <path d="m85.1894 21.6287c.0133.1782.0254.3431.036.4829-.051.0562-.072.103-.1019.1095-.9121.1972-1.3182.6704-1.3384 1.5971-.0138.6349-.0029 1.2702-.0053 1.905 0 .0938-.0137.1871-.0246.3209-.1791.0089-.3411.0174-.5521.0279v-4.3043h.4514c.0239.2707.0445.5072.0764.8684.3787-.6025.7016-1.1149 1.4585-1.007z" />
            <path d="m19.2461 21.7572c.1778-.0085.3415-.0166.5492-.0267v4.3181c-.1746.0085-.3399.0165-.5492.0266v-4.3176z" />
            <path d="m19.8411 20.226v.6038h-.6401c-.0093-.1896-.0182-.3734-.0291-.6038z" />
            <path d="m69.623 21.7571h.4939c.0222.2215.0424.4195.0707.7032.1136-.137.1802-.2012.2287-.2776.4648-.7359 1.6755-.7695 2.291.0331.6434.839.643 2.5549-.0113 3.3845-.5876.7452-1.5207.8042-2.211.1314-.0505-.0493-.044-.156-.0642-.236-.0578.0396-.1156.0792-.1734.1188v1.9264c-.2291.0134-.409.0243-.6244.0368zm.6268 2.1273c0 .2304-.0246.464.0049.6907.0768.5932.5767 1.0786 1.0956 1.0915.4974.0125.9319-.354 1.0652-.9614.1378-.6268.1564-1.2617-.1216-1.865-.3762-.8171-1.2617-.8919-1.7975-.1677-.274.3702-.2785.7856-.2466 1.2115z" />
            <path d="m47.2039 23.8194c.0295.5581-.0991 1.1461-.4296 1.5931-.4389.5932-1.033.8559-1.7652.7654-.6074-.0752-1.0802-.4458-1.3348-.9974-.3225-.6995-.3605-1.5381-.1124-2.2663.0158-.0461.0327-.0918.0505-.137.2247-.5634.7081-.9929 1.3049-1.1178.1354-.0283.274-.0416.4122-.0404.8277.0064 1.4424.4603 1.7083 1.3016.0569.1811.0945.3674.1269.5541.0194.1127.0327.2279.0388.3451zm-3.1255.0457c-.0008.021-.0012.0416-.0012.0626-.0025.3989.1034.7804.2756 1.1384.3843.8002 1.4265.8333 1.863.0615.4356-.7703.4154-1.5927.0505-2.3856-.1806-.3932-.5452-.6013-.9857-.5956-.4429.0056-.7884.2303-.9545.6344-.1418.3443-.236.7117-.2477 1.0847z" />
            <path d="m42.739 23.8194c.0295.5581-.099 1.1461-.4296 1.5931-.4388.5932-1.0329.8559-1.7652.7654-.6074-.0752-1.0802-.4458-1.3348-.9974-.3225-.6995-.3605-1.5381-.1123-2.2663.0157-.0461.0327-.0918.0505-.137.2247-.5634.708-.9929 1.3049-1.1178.1354-.0283.274-.0416.4122-.0404.8276.0064 1.4423.4603 1.7082 1.3016.057.1811.0946.3674.1269.5541.0194.1127.0328.2279.0388.3451zm-3.1259.0457c-.0008.021-.0012.0416-.0012.0626-.0024.3989.1035.7804.2756 1.1384.3844.8002 1.4266.8333 1.863.0615.4357-.7703.4155-1.5927.0505-2.3856-.1806-.3932-.5451-.6013-.9856-.5956-.4429.0056-.7884.2303-.9545.6344-.1419.3443-.236.7117-.2478 1.0847z" />
            <path d="m56.1992 20.2147h.5419v7.3283h-.5419z" />
        </g>
    </g>
<!-- u:3efa98571719 -->
</svg>