<svg xmlns="http://www.w3.org/2000/svg" fill="none" height="27.0" viewBox="0.0 0.0 91.0 27.0" width="91.0">
    <clipPath id="a">
        <path d="m.412109.812439h90v25.9534h-90z" />
    </clipPath>
    <g clip-path="url(#a)" fill="#ffffff">
        <path d="m9.92212 26.7658c-.20883-.0276-.41767-.0599-.6265-.0842-1.97823-.2364-3.7363-.9891-5.25802-2.2713-1.89244-1.5929-3.046681-3.6213-3.467582-6.0577-.106844-.6168-.158648-1.24-.158648-1.8649 0-5.0265 0-10.05308 0-15.08123 0-.0858-.004856-.1716.004857-.25578.025902-.212068.153791-.327006.369098-.338338.05666-.003238.113319 0 .169979 0h10.480396c3.7137 0 7.0793 1.999278 8.8568 5.259648.6038 1.10891.9907 2.29067 1.1316 3.54528.0485.42902.0744.86282.0777 1.29512.0081 1.9458.0161 3.8917 0 5.8359-.0211 2.676-.9633 4.9926-2.8104 6.9255-1.5249 1.5945-3.3947 2.5642-5.5672 2.9414-.327.0567-.6621.0745-.994.1133-.0404.0049-.0793.0243-.1198.0373zm4.51978-10.7654c.0114.0567.0211.0842.0227.1117.0081.4695.0065.9373-.0777 1.4003-.2056 1.1316-.8434 1.8714-1.9734 2.145-.8499.2056-1.7046.204-2.54966-.0211-.97941-.2606-1.63342-.8774-1.95395-1.8438-.16513-.497-.22826-1.0102-.22988-1.5298-.00486-1.648-.00971-3.2944.00324-4.9424.00323-.3869.04371-.7819.12303-1.1607.23959-1.14453.90008-1.9232 2.0527-2.23726.69612-.1894 1.40352-.21368 2.11102-.09551.9939.16674 1.6917.72525 2.0867 1.65447.0582.1376.1052.27844.1586.41766.0259.06637.0453.13434.0777.19754.0955.1829.2364.2525.4387.2201.0486-.0081.0972-.021.1441-.0356.8968-.2655 1.7953-.53097 2.6922-.80132.3788-.11332.4986-.33672.3804-.71392-.0777-.2493-.1668-.4986-.2704-.73819-.7236-1.68684-1.9102-2.9026-3.6521-3.53719-.8968-.32701-1.8277-.45004-2.7796-.4549-1.1154-.00647-2.20969.11656-3.26842.48404-1.76617.61516-3.03697 1.76455-3.75573 3.50157-.38043.92275-.56822 1.8892-.5747 2.88481-.01295 1.8957-.00647 3.7913-.00323 5.687 0 .6119.0777 1.219.22016 1.8131.57145 2.3943 2.01709 3.984 4.37737 4.7222.71391.2234 1.44887.3303 2.19675.3804 1.0215.068 2.0268-.0048 3.0176-.2719 2.9058-.7819 4.7821-3.1762 4.8274-6.1857.021-1.3695.0048-2.7407.0048-4.1102 0-.0356 0-.0712-.0048-.1069-.0194-.1667-.1117-.2752-.2768-.3059-.1036-.0195-.2121-.0227-.3173-.0227-1.491 0-2.982 0-4.4729 0-.5116 0-1.0231-.0032-1.5331 0-.361.0032-.4937.1328-.4953.4857-.0033.845-.0033 1.69 0 2.5351 0 .3658.1181.4759.4921.4759h2.5141.2476z" />
        <path d="m90.4108 17.7327c-.3772.9616-1.1025 1.5444-2.0608 1.8438-1.1607.3627-2.3247.3594-3.4595-.0987-1.1251-.4549-1.7613-1.3194-1.975-2.5027-.0291-.1603-.0518-.3238-.0518-.4857-.0032-.879-.0308-1.7613.0097-2.6387.0729-1.614 1.083-2.7909 2.6582-3.139.9098-.2007 1.8196-.1991 2.7083.1069 1.1591.3982 1.8423 1.2254 2.1126 2.4088.0243.1085.0389.2202.0583.3319v2.2162c-.1101.1408-.2574.1716-.429.1716-1.5169-.0033-3.0354-.0016-4.5522-.0016-.0826 0-.1651 0-.2574 0 0 .2039-.0114.382.0016.5568.0518.7091.4662 1.1786 1.1542 1.3065.3238.0599.6492.0469.9746-.0033.4711-.0744.8256-.3205 1.0587-.7382.0389-.068.0761-.136.1182-.2023.1279-.2008.2007-.2218.4241-.1279.0259.0113.0518.0226.0777.0356.3983.2024.7949.4047 1.1947.6054.1053.0519.1895.1198.2364.2299v.1279zm-2.1628-3.3786c-.0227-.2541-.0194-.4824-.0648-.7025-.1149-.5569-.4516-.9196-1.0117-1.0555-.3449-.0842-.6897-.0745-1.0296.0259-.34.1003-.6071.3011-.7803.6151-.1927.3481-.2186.722-.1797 1.117h3.0677z" />
        <path d="m47.0752 11.9193c.259-.259.4792-.5115.7333-.7236.6168-.5148 1.3323-.7123 2.1272-.5715.6864.1215 1.1882.5116 1.5282 1.1154.0696.1231.1263.2542.1991.4047.0469-.0599.089-.11.1295-.1618.2606-.3497.552-.6686.9114-.9179.6346-.4387 1.3323-.5812 2.0867-.4193.586.1246 1.0328.4533 1.355.9535.2752.4257.416.9001.4727 1.3987.0324.2817.0421.5666.0437.8499.0033 1.7759.0016 3.5501.0016 5.326 0 .0566.0017.1133 0 .17-.0081.1748-.0841.2574-.2574.2784-.0485.0065-.0987.0049-.1489.0049-.5391 0-1.0798 0-1.6188 0-.0632 0-.1279 0-.1911-.013-.1295-.0259-.1959-.102-.2072-.2331-.0048-.0567 0-.1133 0-.17 0-1.6836.0032-3.3656-.0032-5.0492 0-.2169-.0211-.4419-.0777-.6507-.1652-.6087-.7188-.8678-1.3016-.6298-.1878.0761-.3432.1991-.4743.3513-.2266.2639-.3707.5698-.4614.9017-.0226.0793-.0178.1684-.0178.2525v4.8356c0 .3723-.0291.403-.3982.403-.5472 0-1.0928 0-1.6399 0-.0567 0-.1133.0033-.17-.0032-.136-.0129-.1894-.0615-.2072-.1975-.0097-.0696-.0065-.1424-.0065-.2121 0-1.6836.0016-3.3655-.0032-5.0492 0-.212-.013-.4289-.0648-.6329-.1651-.6492-.7867-.9211-1.3841-.6119-.1295.0663-.2574.1586-.3529.2671-.3205.3658-.5245.777-.5213 1.2869.0114 1.5768.0049 3.1536.0049 4.7287 0 .3853-.0389.4241-.429.4241-.5391 0-1.0798 0-1.6189 0-.0566 0-.1133.0033-.1699-.0032-.1441-.0146-.204-.068-.2251-.2088-.0097-.0632-.0064-.1279-.0064-.191 0-2.6841 0-5.3682 0-8.0522 0-.0421-.0017-.0858 0-.1279.0129-.1862.0777-.2639.2622-.2655.6103-.0048 1.2206-.0048 1.8326 0 .191 0 .2671.0842.2735.2768.0049.2121 0 .4258.0017.6395v.225z" />
        <path d="m32.2078 15.1619c-.0793 0-.157 0-.2331 0-.4759 0-.9519 0-1.4262 0-.2801 0-.3416-.0599-.3416-.3351 0-.5035-.0016-1.0086 0-1.512 0-.251.0648-.3173.3141-.3173h3.7703c.2606 0 .3157.0534.3157.314 0 .8515.0097 1.7047-.0081 2.5562-.0356 1.7564-1.1316 3.3381-3.1471 3.8124-1.0587.2477-2.1191.1991-3.1519-.136-1.4667-.4759-2.3295-1.5039-2.6517-2.9997-.089-.4112-.1214-.8289-.1214-1.2482 0-1.0231-.0032-2.0446 0-3.0677 0-.4905.0502-.9778.1781-1.4537.3804-1.40517 1.2595-2.34411 2.6533-2.77148 1.0523-.32377 2.1272-.36101 3.1956-.09714 1.3922.34482 2.2891 1.24814 2.7796 2.57722.0243.0664.0469.1344.0647.2024.0648.2347-.0048.3626-.2396.4387-.1214.0388-.2444.0712-.3674.1084-.4209.1247-.8435.2493-1.2644.3724-.2752.0793-.3561.0372-.4484-.2267-.0146-.0405-.0275-.0809-.0421-.1198-.2865-.7689-.8661-1.1801-1.6868-1.1947-.2979-.0048-.5941.0032-.8888.0745-.7301.1764-1.1704.6378-1.3388 1.3598-.0534.2267-.0841.463-.0858.6945-.008 1.0652-.008 2.1304 0 3.194.0017.2185.0324.4403.0794.6524.1683.7706.6394 1.2449 1.4181 1.4035.4435.0907.8871.0923 1.3307 0 .7867-.1651 1.2546-.6766 1.3372-1.4747.0242-.2251.0194-.4533.0259-.68 0-.034-.0114-.0679-.0211-.123z" />
        <path d="m58.165 13.7616c0-.5472-.0065-1.0944 0-1.6399.0081-.6217.1004-1.2287.3221-1.8131.4566-1.20285 1.3016-1.99771 2.5335-2.35871.9746-.28492 1.9637-.28654 2.9463-.03562 1.2822.32701 2.124 1.14777 2.5789 2.37813.0615.1651.1149.3351.157.5083.0518.2121-.0259.348-.2315.4096-.5569.1651-1.1154.327-1.6739.4872-.2072.0599-.3043.0081-.3836-.1894-.0551-.1376-.0988-.2817-.1555-.4176-.2833-.6767-.8061-1.007-1.5265-1.0232-.2526-.0064-.5148.0081-.7609.0632-.6848.1538-1.0587.6281-1.206 1.287-.0583.2606-.0891.5342-.0907.8013-.0097 1.0361-.0048 2.0737-.0032 3.1098 0 .3934.0566.7787.2088 1.1445.2493.5958.7026.9228 1.3404 1.0118.3205.0453.6362.0308.9519-.0421.5213-.1182.892-.4241 1.1121-.9065.0826-.1797.136-.3724.1878-.5634.068-.2461.2056-.3238.4404-.2444.5293.1813 1.0652.3432 1.5994.5164.2606.0842.3205.1959.2639.4662-.3497 1.6383-1.5493 2.7682-3.2038 3.0273-.7802.1214-1.5573.1246-2.3262-.0632-1.5525-.3788-2.5076-1.3695-2.9107-2.9042-.1198-.4549-.1668-.9211-.1684-1.3906-.0016-.5391 0-1.0798 0-1.6188z" />
        <path d="m40.7799 14.3201c-.0097-.348.0291-.6799-.0372-1.0102-.0826-.4128-.3335-.6637-.7431-.7543-.2801-.0616-.5634-.0599-.845-.0017-.2882.0599-.5019.2234-.6427.4808-.047.0875-.0891.1781-.1295.2672-.102.2201-.1473.2444-.3788.1861-.3368-.0842-.6735-.1716-1.0102-.2558-.1991-.0501-.3982-.0987-.5974-.1505-.2833-.0729-.3189-.1328-.2476-.4225.1181-.4841.3642-.8904.7382-1.219.4144-.3643.9033-.5844 1.4359-.7075.9502-.2169 1.9021-.2282 2.8411.0502 1.1801.3497 1.86 1.2044 1.9588 2.4299.0145.191.0226.3821.0243.5747.0016 1.7888 0 3.5777 0 5.3681v.17c-.0081.2234-.0745.2962-.2947.2979-.5536.0032-1.1073.0032-1.6609 0-.2412 0-.3027-.0664-.306-.306-.0032-.2542 0-.5083 0-.8094-.0599.0663-.0923.0971-.1182.1311-.6475.8596-1.5136 1.2287-2.5788 1.151-.5731-.0421-1.0992-.2104-1.5492-.5795-.5391-.4436-.8062-1.0329-.8855-1.7144-.0405-.34-.0324-.6799.0307-1.0183.1198-.6346.4533-1.1234.994-1.4731.4743-.3044 1.0037-.4598 1.5525-.5553.709-.123 1.4246-.1586 2.1417-.1343.0923.0032.1829 0 .3108 0zm0 1.4991c-.5326-.0146-1.0328-.0098-1.5314.0663-.2526.0389-.5019.0923-.7318.2089-.3707.1894-.5358.518-.4856.9519.0469.416.2639.6799.6718.7738.8564.1958 1.6917-.1619 2.0527-1.1122.013-.0324.0227-.068.0227-.102.0016-.2541 0-.5083 0-.7867z" />
        <path d="m72.9348 18.5016c-.0632.0744-.0955.1068-.123.144-.96 1.321-2.5805 1.3793-3.6441.8726-.7625-.3626-1.1817-.994-1.3355-1.8099-.0729-.3869-.0745-.7754-.0114-1.1639.1117-.6783.4598-1.1964 1.0426-1.5574.4662-.2881.981-.4387 1.5152-.5309.7091-.1215 1.423-.1587 2.1418-.1328.0971.0033.1942 0 .3092 0 .0081-.3545.0307-.6945-.0405-1.0296-.0842-.3917-.3254-.6362-.7172-.7285-.2881-.0679-.5779-.0663-.866-.008-.2882.0582-.5019.2217-.6444.4791-.0437.081-.0841.1635-.1214.2477-.1165.2526-.144.2671-.4257.1975-.4339-.1084-.8661-.2185-1.2983-.3286-.1101-.0275-.2202-.0534-.3287-.0842-.2137-.0615-.2525-.123-.2039-.3399.1052-.4776.3302-.8872.688-1.2239.4306-.4047.9486-.6411 1.5184-.7722.9001-.2056 1.8002-.2104 2.6987.0146.3108.0777.6054.1991.879.3707.7123.4468 1.0765 1.1089 1.1882 1.9232.0324.238.0421.4808.0421.722.0033 1.8099.0017 3.6197.0017 5.4312 0 .0567.0016.1134 0 .17-.0098.1797-.0826.2574-.2655.2623-.2558.0064-.5116.0016-.7674.0032-.3059 0-.6103.0032-.9162 0-.2542-.0032-.3109-.0631-.3141-.3189-.0016-.2525 0-.5051 0-.8078zm-.1311-2.697c-.361.0113-.7285.0194-1.096.0372-.3189.0162-.6346.0615-.9373.1667-.5181.1814-.7236.4889-.6864 1.0312.0243.3497.2007.5974.5229.735.1991.0858.4112.0939.6249.0939.9308 0 1.8373-.8305 1.5719-2.0657z" />
        <path d="m79.116 12.1007c.047-.0696.0923-.1392.1392-.2088.599-.8661 1.4392-1.2514 2.4785-1.2287.2315.0048.2898.0663.2914.2946.0032.5537.0032 1.1073 0 1.6609 0 .2558-.0696.3141-.3335.3271-.2898.0145-.5844.0097-.8677.0599-.7269.1278-1.2676.5147-1.5363 1.2238-.0486.1295-.0761.2736-.0777.4128-.0048 1.512-.0032 3.024-.0032 4.536 0 .0567.0016.1133 0 .17-.0081.1991-.0745.2736-.2704.2752-.6313.0032-1.2643.0032-1.8956 0-.204 0-.2623-.0664-.2736-.272-.0033-.0566 0-.1133 0-.1699 0-2.6614 0-5.3244 0-7.9858 0-.4031.021-.4242.4209-.4242h1.4699.1279c.225.0098.2914.0713.2946.2963.0032.2703 0 .5391 0 .8094v.2105c.013.0032.0259.0064.0372.0097z" />
    </g>
<!-- u:32c617811948 -->
</svg>