<svg xmlns="http://www.w3.org/2000/svg" fill="none" height="22.0" viewBox="0.0 0.0 94.0 22.0" width="94.0">
    <clipPath id="a">
        <path d="m.412109.075989h93.1221v21.4263h-93.1221z" />
    </clipPath>
    <rect fill="#ffffff" height="5.35657" rx="2.67828" width="14.5393" x="78.4648" y="16.1457" />
    <g clip-path="url(#a)">
        <path d="m5.00391 1.60645h38.2612v13.774h-38.2612z" fill="#ffffff" />
        <rect fill="#ffffff" height="13.774" rx="3.06089" width="40.5569" x="50.1523" y="1.60645" />
        <path d="m70.5619.0841148c7.2931 0 14.5841.0060945 21.8772-.008126.8716 0 1.1032.3026942 1.095 1.1051412-.0243 2.43577-.0122 4.87154-.0081 7.30731.002 1.80196-.5729 3.40476-1.6455 4.84106-.579.776-1.2839 1.4119-2.1006 1.9299-.3514.2235-.713.3373-1.1417.3352-2.7689-.0142-5.5379 0-8.3068-.0081-.7801-.002-1.4952.1666-2.1026.6765-.2174.1828-.4652.2011-.7334.2011-3.0147-.004-6.0315-.002-9.0463-.002-6.582 0-13.1641 0-19.7462 0-.1158 0-.2316.002-.3474 0-.5485-.0163-.7943-.256-.7963-.8004-.0041-1.8853-.0021-3.7685-.0021-5.6537 0-3.00052 0-6.00105.0061-9.00361 0-.195029.0224-.412399.1077-.583046.1077-.213308.3291-.320977.579-.3311347.1442-.0060945.2905-.004063.4347-.004063h21.8773zm9.6537 8.1707052c.1483-3.01881-2.5963-5.64555-5.5907-5.66586-3.1387-.02235-5.7065 2.59423-5.739 5.5907-.0325 3.00664 2.2631 5.78974 5.7776 5.77964 3.1062-.0102 5.6923-2.6593 5.5521-5.70245zm2.6003.06298v5.1722.0427c.0061.4245.0244.4489.4368.451.5647.004 1.1295.0061 1.6943 0 .3595-.0041.3859-.0366.392-.4063.0061-.319-.002-.6379 0-.9569.0061-.453.0549-.4774.4876-.5322.3697-.0468.7517-.1057 1.097-.2418 2.2286-.8837 3.4861-2.85221 3.0717-5.36518-.3027-1.82632-1.4668-3.06351-3.2139-3.66483-1.2169-.41849-2.5008-.1483-3.7542-.19909-.1422-.0061-.2052.08735-.2092.22346-.0021.10158-.0041.20315-.0041.30473v5.17221zm-30.5822 1.8588c-.3332 0-.6664 0-.9995 0-.1808 0-.2763.0833-.2479.2682.0386.258.0508.5241.1341.7679.4855 1.4261 1.4342 2.3504 2.9376 2.6531 1.6252.3271 3.4576-.4428 4.2153-2.0315.8776-1.84254-.0345-4.13205-1.6658-4.80651-.4388-.1808-.8898-.3352-1.3306-.50584-.2966-.1158-.6014-.2194-.8797-.3677-.4124-.21941-.5708-.66431-.4002-1.02591.195-.41443.644-.58101 1.095-.42256.2702.09345.5058.22956.6318.49366.067.1422.1666.18284.3088.1808.6237-.00203 1.2473-.00609 1.871 0 .2316.00204.3007-.1036.2925-.31894-.0223-.61961-.2742-1.15796-.6419-1.62927-.9142-1.16811-2.4744-1.59676-4.0102-1.07263-1.2209.41442-1.9381 1.3347-2.1026 2.59423-.1686 1.29813.2945 2.38905 1.3712 3.18743.5465.40427 1.1864.59319 1.8142.81463.325.11579.6643.22346.9528.4063.7496.47334.6704 1.50331-.1179 1.90151-.8146.4103-1.676.0061-1.9137-.7476-.0893-.2865-.2214-.3596-.4895-.3433-.2743.0182-.5506.004-.8269.004zm13.093-.57489c0-1.33267-.002-2.66534 0-3.998 0-.43068.0447-.46928.4774-.47537.4348-.0061.8695.00812 1.3042-.0061.3393-.01219.3982-.07923.4002-.42255.0061-.56476.0061-1.12952 0-1.69427-.004-.35552-.0284-.38802-.3616-.39005-2.0579-.00407-4.1138-.00407-6.1717 0-.325 0-.3494.02844-.3535.34942-.0081.57897-.006 1.15998 0 1.73896.0041.37989.0427.41646.4307.42256.4348.00609.8695-.00407 1.3043.00406.3941.00609.4408.06094.4489.46318v.13002 7.64863c0 .1016.0041.2031 0 .3047-.0061.1991.0975.2946.2865.3027.1584.0061.3189 0 .4774 0 .4184 0 .8369-.0122 1.2554.0041.449.0162.5018-.0163.5018-.4693 0-1.3042 0-2.6085 0-3.91066z" fill="#ffffff" />
        <g fill="#0080fb">
            <path d="m23.3338 16.3563c-7.3215 0-14.64305 0-21.96256 0-.02844 0-.05891 0-.08735 0-.721188-.0041-.863393-.1443-.863393-.8675 0-2.5658-.022347-5.1316.016252-7.69735.018283-1.28391.323009-2.5089 1.042161-3.61404.35551-.54647.68462-1.09904 1.15593-1.56019.87557-.86136 1.83851-1.57036 3.03303-1.94009.93043-.288473 1.86492-.422552 2.84614-.422552 12.07529.016252 24.15249.010157 36.22779.010157.26 0 .5221-.008126.7821 0 .4612.012189.64.239718.5851.68868-.0467.400205-.0894.806505-.0894 1.208745-.0061 4.39211-.004 8.78624-.004 13.17834 0 .1443-.0061.2905.0121.4348.0447.325-.1076.5444-.4266.5789-.13.0143-.26.0041-.3921.0041-7.291 0-14.5841 0-21.8752 0zm8.0326-13.91786c-.3616 0-.7253-.00812-1.0869.00407-.3677.01219-.455.1422-.4631.51397-.0163.70899-.0468 1.41595-.0894 2.12292-.0407.69071-.1077 1.38142-.1565 2.07213-.0589.80651-.1097 1.61504-.1686 2.42155-.0183.258-.0691.51602-.0833.77402-.0365.6602-.0569 1.3225-.0914 1.9827-.0223.4185-.0752.835-.0894 1.2535-.0142.4347.061.5078.4957.5139.579.0082 1.16.0041 1.739 0 .5566-.002.6176-.069.6338-.6257.0264-.8085.0569-1.6191.0935-2.4276.0162-.3758.0507-.7496.0792-1.12343.0041-.04876.0284-.09751.0447-.14627.0345.04266.0772.08126.1056.12799.0427.07313.0813.15031.1097.22951.1219.3352.2418.6704.3576 1.0056.1584.4632.3108.9264.4692 1.3896.1219.3555.2601.7049.3718 1.0625.126.4022.2296.4997.6379.5038.5648.0061 1.1315.004 1.6963.002.514 0 .6155-.0711.7821-.5688.2012-.6034.3901-1.2108.5892-1.8141.1706-.5201.3433-1.0381.5241-1.5541.0244-.0671.1016-.1158.1544-.17272.0244.06302.067.12392.0711.18692.0345.6216.0609 1.2412.0934 1.8629.0285.5627.0549 1.1254.0955 1.6881.0203.2804.1036.3637.3779.3657.6805.0081 1.3631.0081 2.0437 0 .2905-.004.3494-.0691.3555-.3697.0061-.4205.0101-.8411-.0122-1.2616-.0447-.8796-.1117-1.7593-.1625-2.63891-.0203-.35754-.0102-.71509-.0386-1.07263-.065-.80651-.2093-1.61098-.2011-2.41546.0121-1.17217-.128-2.33216-.1951-3.49621-.0182-.32911-.065-.39208-.3799-.39818-.7252-.01016-1.4504-.00812-2.1737 0-.2864.00203-.3697.09345-.455.36567-.1869.58914-.3819 1.17624-.581 1.75928-.2702.79026-.5485 1.57848-.8289 2.36467-.1442.4063-.3047.80854-.4571 1.21484-.0203.05282-.0325.10767-.0508.16252-.0893.28238-.1767.56476-.2722.84511-.0203.05891-.067.10767-.1016.16252-.0365-.05892-.0853-.11174-.1056-.17471-.132-.39615-.2478-.79838-.386-1.19249-.2214-.63993-.4611-1.27579-.6846-1.91571-.1849-.53225-.3596-1.06857-.5383-1.60286-.1605-.4774-.3312-.95277-.4754-1.43424-.126-.42458-.2702-.55257-.7232-.55663-.2905 0-.579 0-.8695 0zm-15.543 8.41446c0-.97103.004-1.94209 0-2.91518 0-.37379-.0549-.44693-.3718-.44896-1.4647-.00813-2.9294-.00813-4.3921 0-.2926 0-.3637.06907-.3657.36364-.0081.6968-.0101 1.39158.0041 2.08838.0061.32912.1341.38802.4814.36772.5343-.0285 1.0706-.0305 1.607-.0285.2072 0 .2864.1118.2397.3129-.0203.0894-.0853.1788-.1544.2417-.3494.321-.8207.4003-1.2433.451-.9446.1118-1.82429-.1767-2.50891-.843-1.09294-1.06048-1.18639-2.964-.29253-4.05898.45505-.55663 1.02184-.95887 1.76944-1.09091.3961-.06908.772-.01423 1.16 0 .5993.02234 1.0828.26612 1.5033.6582.128.11783.2214.11377.3393.03047.0711-.04875.1361-.10767.197-.16861.4408-.4388.8817-.87964 1.3185-1.32048.2316-.23294.2167-.46047-.0447-.68258-.0549-.04673-.1036-.10361-.1585-.15033-.7009-.5932-1.5338-.92637-2.4073-1.12546-.4856-.1097-1.0056-.0711-1.5094-.1036-.8533-.05282-1.63945.21127-2.37079.58913-1.46065.75369-2.45812 1.92993-2.9274 3.51857-.13408.45505-.27222.9223-.2966 1.38954-.06704 1.27579.3027 2.44394.97715 3.52874.64602 1.0381 1.82226 1.9644 3.09195 2.3362.24785.0731.50788.0996.75569.1727.7273.2113 1.4526.1808 2.1819.0122.2377-.0549.4875-.2133.7252.0284.0366.0366.1361.0163.2052.0163.7252 0 1.4505-.0203 2.1737.002.3332.0102.3189-.0711.3189-.3047-.004-.9569 0-1.9137 0-2.8705zm10.3037 3.2443c0-.0101 0-.0203 0-.0304.4206 0 .8391-.0041 1.2596 0 .1605 0 .2681-.0468.2214-.2235-.0772-.3047-.1686-.6074-.2621-.9101-.0893-.2905-.193-.577-.2844-.8675-.1848-.5891-.3555-1.1823-.5525-1.7674-.2337-.69678-.4896-1.38546-.7334-2.0782-.0102-.02641-.0122-.05688-.0203-.08532-.2235-.75978-.4409-1.51957-.6745-2.27529-.2986-.96496-.6176-1.92383-.9203-2.88676-.1117-.35551-.3148-.53226-.6866-.53632-.4937-.00609-.9853 0-1.4789 0-.4727 0-.7679.23769-.8858.71306-.0101.04266-.0284.08329-.0426.12392-.2926.83089-.5831 1.66177-.8776 2.49266-.0752.21533-.1687.42255-.2337.63992-.1239.41036-.2173.82885-.3535 1.23515-.2153.64196-.4611 1.27579-.6825 1.91571-.4206 1.21687-.833 2.43577-1.2494 3.65267-.061.1787-.13.3555-.1727.5383-.0548.2397.0081.3373.2499.3413.7395.0122 1.4789.0163 2.2184-.0061.1483-.004.3596-.1097.4246-.2316.1564-.2884.2884-.6054.3433-.9263.0366-.2194.1341-.2194.2824-.2194.9853-.0021 1.9726 0 2.9578-.0061.1991 0 .3434.065.4124.2498.0854.2276.1605.4612.2337.6928.1076.3433.2295.4429.5932.451.3047.0061.6094 0 .9141 0z" />
            <path d="m85.2559 21.4982c-1.7674 0-3.5368-.0061-5.3042.004-.7192.0041-1.286-.325-1.7654-.7963-.6623-.6521-.8086-1.4667-.705-2.3809.128-1.1113.7984-1.7552 1.7309-2.188.2986-.1381.6623-.1929.9954-.195 3.4495-.0142 6.899-.0426 10.3485.0122 1.1661.0183 2.1534.5465 2.6044 1.7309.7252 1.9055-.5302 3.8171-2.513 3.8151-1.7979 0-3.5937 0-5.3916 0zm5.6191-1.3449c.2032-.0589.4246-.0853.6075-.1828.2641-.1381.3616-.3758.2498-.5241-.1747-.2337-.3453-.0813-.5241.0162-.39.2154-.6643.1118-.8309-.2824-.0589-.1401-.0101-.1909.1138-.2031.2153-.0203.4368-.0041.646-.0488.4104-.0873.6968-.4896.6399-.8532-.0589-.3718-.4286-.6643-.8349-.6663-.5262-.0041-.8492.3209-1.095.7232-.3047.4997-.1869 1.0279.0874 1.4789.1869.3068.4814.5932.9405.5404zm-9.7146-1.3265c.0345-.5384-.2235-.9041-.6034-1.2068-.4205-.3352-1.0096-.2945-1.3672.0955-.4083.447-.5749.9508-.39 1.5562.1463.4753.5444.778 1.03.843.7963.1057 1.3062-.6358 1.3306-1.2879zm2.0071.2945h.0142c0 .2601-.0223.5242.0102.7801.0122.0975.1341.2276.2316.2601.1422.0487.2336-.0711.2742-.2134.0204-.069.0569-.1401.0549-.2092-.0203-.5323-.0183-1.0686-.0874-1.5968-.0447-.3514-.6114-.7232-.9649-.7394-.5912-.0285-.9447.455-1.0584.9629-.0996.453-.0346.9507-.0041 1.4241.0162.2499.195.4063.3474.3677.2194-.0549.2153-.2539.2214-.4226.0102-.3616-.0142-.7252.0142-1.0848.0143-.1767.0752-.3778.1849-.5119.2458-.3068.5566-.2438.7009.1219.0406.1036.0528.2234.0589.3392.0101.1727.002.3474.002.5221zm3.9127-.1219c0 .3413-.0041.6176 0 .8919.0041.1605.0691.2844.258.2762.193-.006.2783-.0934.2702-.3006-.0142-.4185.0061-.839-.0061-1.2575-.0061-.2235.0914-.3819.2275-.5404.13-.1524.2743-.1666.4165-.0528.2031.1625.3697.325.3271.648-.0508.384-.0204.7801-.0061 1.1702.0061.193.1198.3331.327.3372.2377.0041.2723-.1686.2723-.3575 0-.3616-.0122-.7232.004-1.0849.0163-.388-.1239-.6968-.3819-.9771-.4591-.4998-1.2067-.4083-1.5582.1727-.2234.3697-.1198.7577-.1503 1.0726zm-2.6145-.6338h.006v1.5175c0 .1565.0244.2946.2276.2966.1991 0 .2844-.1117.2905-.2986.002-.0731.0061-.1442.0061-.2174 0-.8816 0-1.7633 0-2.6429 0-.0874.0162-.1829-.0163-.2581-.0406-.0934-.1381-.2417-.1848-.2336-.1097.0224-.2316.1036-.2987.1971-.0508.0691-.0284.195-.0284.2966-.002.4469 0 .8959 0 1.3428zm1.3814.3311h.0162c0 .3901-.002.7822 0 1.1722 0 .2011.1199.2621.3088.2804.1889.0182.2215-.0996.2519-.2276.0244-.1117.0427-.2275.0427-.3433 0-.648-.0061-1.2941-.0183-1.9421-.0041-.2235-.1808-.2296-.3474-.2275-.1605 0-.2722.0284-.26.2458.0203.3453.0061.6948.0061 1.0421zm.2559-2.1534c-.1787.0183-.2417.1463-.2437.3251 0 .2072.0873.3088.2681.3047.2113-.0061.3738-.13.3596-.2742-.0203-.1951-.191-.3616-.384-.3556zm1.093.9528h.0264l-.0102-.0264zm2.8116 0-.0122-.0264-.0122.0244h.0244z" />
            <path d="m80.2148 8.25468c.1381 3.04322-2.4459 5.69232-5.5521 5.70242-3.5145.0122-5.8101-2.771-5.7776-5.77962.0325-2.99646 2.6003-5.61101 5.739-5.59069 2.9944.02031 5.739 2.64705 5.5907 5.66586zm-5.6455 3.16102c1.5723.0894 3.228-1.2758 3.1732-3.19962-.0488-1.73287-1.2758-3.11632-3.1895-3.12445-1.8324-.00812-3.1062 1.42205-3.1407 3.16102-.0345 1.76745 1.5521 3.27685 3.157 3.16305z" />
            <path d="m82.8164 8.31759c0-1.72474 0-3.44746 0-5.1722 0-.10158 0-.20315.0041-.30473.004-.13611.067-.22956.2092-.22347 1.2534.04876 2.5394-.2194 3.7542.19909 1.7492.60133 2.9112 1.83851 3.2139 3.66483.4164 2.51297-.8411 4.48149-3.0717 5.36519-.3433.1361-.7252.195-1.097.2418-.4327.0548-.4814.0792-.4875.5322-.0041.319.004.6379 0 .9569-.0061.3697-.0346.4022-.3921.4063-.5648.006-1.1295.006-1.6943 0-.4124-.0041-.4307-.0265-.4368-.451 0-.0143 0-.0285 0-.0427v-5.17221zm2.5252-.98324c0 .59319-.0061 1.18639.002 1.77959.0061.42865.1706.54648.579.4124.2031-.06704.4042-.16252.5871-.27832.7212-.45506 1.099-1.1478 1.0645-1.96853-.0427-.97512-.6338-1.79584-1.674-2.08838-.4489-.12595-.5566-.05079-.5586.4063-.0041.57898 0 1.15796 0 1.73694z" />
            <path d="m52.2341 10.1787c.2763 0 .5526.0142.8268-.004.2682-.0163.3982.0568.4896.3433.2377.7537 1.099 1.1579 1.9137.7476.7902-.3982.8674-1.42817.1178-1.90151-.2885-.18284-.6277-.29051-.9528-.4063-.6277-.22144-1.2676-.41037-1.8141-.81464-1.0767-.79838-1.5399-1.8893-1.3713-3.18743.1626-1.25953.8817-2.17777 2.1026-2.59423 1.5359-.52209 3.0961-.09548 4.0102 1.07264.3677.47131.6196 1.00762.642 1.62926.0081.21737-.061.32301-.2925.31895-.6237-.00813-1.2474-.00406-1.8711 0-.1422 0-.2417-.0386-.3088-.1808-.1259-.2641-.3616-.39818-.6317-.49366-.451-.15643-.9.00813-1.095.42255-.1707.36161-.0122.80651.4002 1.02591.2803.1483.583.25394.8796.3677.4429.17268.8918.32504 1.3307.50585 1.6292.67446 2.5434 2.96396 1.6658 4.80651-.7578 1.5907-2.5902 2.3586-4.2154 2.0315-1.5053-.3027-2.452-1.229-2.9375-2.6531-.0833-.2438-.0955-.5099-.1341-.7679-.0264-.1849.067-.2682.2478-.2682h.9995z" />
            <path d="m65.3267 9.60183v3.91067c0 .453-.0528.4855-.5018.4693-.4185-.0163-.8369-.0041-1.2554-.0041-.1585 0-.319.0061-.4774 0-.189-.0081-.2926-.1036-.2865-.3027.0041-.1016 0-.2032 0-.3047 0-2.5496 0-5.0991 0-7.64864 0-.04266.0021-.08735 0-.13002-.0081-.40223-.0548-.45505-.4489-.46318-.4348-.00813-.8695.00203-1.3043-.00406-.388-.0061-.4266-.04266-.4306-.42255-.0061-.57898-.0061-1.15999 0-1.73897.004-.32098.0284-.34739.3534-.34942 2.058-.00406 4.1138-.00406 6.1717 0 .3332 0 .3576.0325.3617.39005.006.56476.006 1.12951 0 1.69427-.0041.34333-.061.41037-.4003.42255-.4347.01423-.8694 0-1.3042.0061-.4307.00609-.4753.04469-.4774.47537-.004 1.33267 0 2.66533 0 3.998z" />
        </g>
        <path d="m74.5697 11.4159c-1.6069.1117-3.1935-1.3977-3.157-3.16306.0346-1.73694 1.3083-3.16712 3.1407-3.16102 1.9157.00812 3.1407 1.39158 3.1895 3.12445.0548 1.92383-1.6008 3.28903-3.1732 3.19963z" fill="#ffffff" />
        <path d="m85.342 7.33451c0-.57897-.004-1.15795 0-1.73693.0041-.45709.1097-.53429.5587-.4063 1.0401.29254 1.6313 1.11326 1.674 2.08838.0365.8187-.3434 1.51347-1.0645 1.96853-.1829.1158-.382.20925-.5872.27832-.4083.13611-.5728.01625-.5789-.4124-.0082-.5932-.0021-1.1864-.0021-1.7796z" fill="#ffffff" />
        <path d="m22.5869 9.92052c-.1585 0-.3189.00813-.4754 0-.2458-.01422-.3291-.1097-.26-.32707.197-.61555.4043-1.22703.6135-1.83851.0163-.04876.0691-.08533.1056-.12799.0468.04266.1199.07923.1402.13205.1686.45912.3291.9223.4876 1.38346.0426.12189.0731.24784.1158.36973.1178.33317.0731.39817-.2946.41036-.1442.00407-.2885 0-.4327 0z" fill="#0080fb" />
        <path d="m90.8167 17.9939c.1442.0203.2092.0122.2559.0386.0549.0345.126.0955.128.1483 0 .0508-.069.1381-.1198.1503-.2113.0427-.4266.0671-.642.0853-.0183 0-.0711-.1361-.063-.1422.1605-.1097.3271-.2092.4388-.2783z" fill="#0080fb" />
        <path d="m80.6152 18.8308c-.0366.1077-.061.2926-.1544.4287-.1524.2214-.3799.3657-.6684.3027-.2702-.0589-.4002-.2621-.4591-.5181-.0691-.2905-.0609-.5769.1158-.8247.1483-.2073.4287-.2743.6562-.193.262.0934.516.4652.5099.8024z" fill="#0080fb" />
    </g>
<!-- u:16dd9d261fe0 -->
</svg>