<svg xmlns="http://www.w3.org/2000/svg" fill="none" height="30" viewBox="0.0 0.0 87.0 31.0" width="84"><clipPath id="a"><path d="m.533203.578308h85.8705v30.4216h-85.8705z" /></clipPath><g clip-path="url(#a)"><path d="m39.1861 20.7922h-2.524v-10.0064h2.524z" fill="#ffffff" /><path d="m43.2479 16.9925c-.3393-.0023-.6643-.1372-.9055-.3759s-.3795-.5623-.3854-.9016c.0017-.3356.1346-.6572.3705-.8959.2358-.2388.5558-.3757.8913-.3815.33.0092.6436.1458.8752.3811.2315.2354.3629.5512.3666.8813.0038.3301-.1204.6488-.3465.8894-.226.2405-.5365.3842-.8662.4009z" fill="#0080fb" /><path d="m51.0237 10.7863c.6565-.0445 1.316.0198 1.9516.1906.5245.1255.9941.418 1.338.8335.344.4154.5437.9313.5692 1.4701-.0124.428-.1456.8439-.3841 1.1995-.2386.3556-.5729.6365-.9643.8103 1.4236.44 2.1127 1.2774 2.1127 2.5967.0122.6012-.1736 1.1898-.5288 1.675s-.8601.8401-1.437 1.01c-.6079.185-1.243.2644-1.8778.2349l-4.5923-.0149v-10.0064zm-1.2774 3.9742h.9403c1.2181 0 1.6876-.308 1.6876-1.1 0-.7629-.4847-1.0858-1.6436-1.0858h-.9829zm0 4.2105h1.2323c1.5698 0 2.0978-.3076 2.0978-1.2029 0-.9225-.528-1.2029-2.2153-1.2029h-1.1148z" fill="#ffffff" /><path d="m59.2264 16.9925c-.3393-.0023-.6643-.1372-.9055-.3759s-.3795-.5623-.3854-.9016c.0018-.3355.1348-.6571.3706-.8958.2358-.2388.5557-.3757.8912-.3816.33.0092.6437.1458.8752.3811.2315.2354.3629.5512.3667.8813.0037.3301-.1205.6488-.3465.8894-.2261.2405-.5366.3842-.8663.4009z" fill="#0080fb" /><path d="m72.9384 20.7922h-2.6851l-.8214-1.9804h-4.4748l-.748 1.9804h-2.6407l4.0348-10.0064h2.8902zm-7.3213-3.7258h3.0807l-1.6139-3.8731z" fill="#ffffff" /><path d="m75.2127 16.9925c-.3393-.0023-.6643-.1372-.9055-.3759s-.3795-.5623-.3853-.9016c.0016-.3356.1346-.6572.3704-.8959.2358-.2388.5558-.3757.8914-.3815.33.0092.6436.1458.8751.3811.2315.2354.3629.5512.3667.8813.0037.3301-.1205.6488-.3465.8894-.2261.2405-.5366.3842-.8663.4009z" fill="#0080fb" /><path d="m85.9492 13.486-.1774-.088c-.9347-.5272-1.9797-.8287-3.0516-.8803-.9094 0-1.4963.3229-1.4963.8069 0 .4258.5134.7923 1.6287 1.1887l.792.2934c1.9221.6895 2.7585 1.6433 2.7585 3.1542 0 1.7742-1.5702 2.9639-3.9174 2.9639-.9067-.0117-1.8029-.1959-2.6407-.5429-.3163-.1003-.6173-.2436-.8946-.4258v-2.1567c.5073.3425 1.048.6326 1.6138.8658.5841.2509 1.2131.3804 1.8487.3808.9829 0 1.5109-.3077 1.5109-.9095 0-.4989-.3374-.7774-1.3483-1.1294l-.5429-.1906c-.5734-.1885-1.1284-.4291-1.6578-.7189-.3534-.1876-.6711-.4359-.9386-.7334-.4331-.5237-.6671-1.1837-.6607-1.8632 0-1.7164 1.4967-2.8462 3.7854-2.8462 1.173.0079 2.3299.2733 3.3891.7774z" fill="#ffffff" /><path d="m15.744.578296-15.210797 15.210804 15.210797 15.2107 15.2107-15.2107z" fill="#0080fb" /><g fill="#ffffff"><path d="m17.752 15.7886c-.0017 2.1113.6557 4.1706 1.8806 5.8903l1.2526-.9645c-1.0051-1.4458-1.5438-3.1644-1.5438-4.9253 0-1.7608.5387-3.4795 1.5438-4.9253l-1.2526-.96549c-1.2248 1.71979-1.8823 3.77899-1.8806 5.89029zm2.6488 0c-.0014 1.5278.4636 3.0197 1.3328 4.2761l1.254-.9683c-.6506-.9803-.9975-2.1306-.9975-3.3071s.3469-2.3268.9975-3.3071l-1.254-.9683c-.8689 1.2561-1.3339 2.7474-1.3328 4.2747zm2.6489 0c-.0003.9418.2729 1.8635.7863 2.6531l1.2582-.9644c-.2982-.5128-.4553-1.0955-.4553-1.6887s.1571-1.1759.4553-1.6887l-1.2582-.9644c-.5134.7896-.7866 1.7113-.7863 2.6531z" /><path d="m13.8359 15.7896c.0017-2.1114-.6557-4.1706-1.8806-5.89031l-1.2526.96441c1.0051 1.4458 1.5438 3.1645 1.5438 4.9254 0 1.7608-.5387 3.4795-1.5438 4.9253l1.2526.9655c1.2248-1.7198 1.8823-3.779 1.8806-5.8903zm-2.6488 0c.0014-1.5278-.4636-3.0197-1.33279-4.2762l-1.25399.9684c.65053.9803.99751 2.1306.99751 3.3071 0 1.1764-.34698 2.3268-.99751 3.3071l1.25399.9683c.86889-1.2561 1.33389-2.7474 1.33279-4.2747zm-2.64888 0c.00025-.9419-.27291-1.8635-.78632-2.6531l-1.25825.9644c.29821.5128.4553 1.0955.4553 1.6887s-.15709 1.1758-.4553 1.6887l1.25825.9644c.51339-.7896.78655-1.7113.78632-2.6531z" /></g></g><!-- u:18ee489e35b9 -->
</svg>