<svg xmlns="http://www.w3.org/2000/svg" fill="none" height="27.0" viewBox="0.0 0.0 96.0 27.0" width="96.0"><clipPath id="a"><path d="m.962891.789124h94.449v26h-94.449z" /></clipPath><g clip-path="url(#a)" clip-rule="evenodd" fill="#ffffff" fill-rule="evenodd"><path d="m10.8452 11.8747c-.5638.2036-1.15897.3446-1.78541.4386s-1.3156.1409-2.08297.1409c-1.5975 0-3.08535-.5168-4.18167-1.4565-1.08065-.924-1.76976-2.25527-1.76976-3.85273 0-1.78545.62646-3.28897 1.73844-4.33829 1.11197-1.04933 2.6938-1.66013 4.58882-1.66013.70482 0 1.34691.06264 1.92639.18794.57948.10963 1.09636.28191 1.56616.50116l-.6108 1.6758c-.1566-.12529-.4855-.34456-.98666-.5325-.48551-.17228-1.15897-.32889-2.00471-.32889-1.31556 0-2.33356.4072-3.03833 1.12764-.70478.72043-1.065 1.75409-1.065 3.00703 0 1.3312.46986 2.3962 1.19029 3.13231.72043.73616 1.70711 1.12766 2.7251 1.12766.37588 0 .6891-.0157.95536-.047.28192-.0313.51687-.094.72047-.1723.03131-.2976.04696-.7204.06261-1.14326l.01566-1.12766-.01566-.98667c-.01565-.29757-.0313-.56383-.06261-.83009h2.11428l-.0313 1.01803v1.11195 1.4565l.0313 1.4879" /><path d="m15.2004 7.67757h3.4768l-.8927-2.31791-.7517-2.17696-.5168 1.33123-.5952 1.45654-.3602.8457m2.6311-5.65382 2.0673 5.41892 2.365 5.62253h-2.3179l-.235-.5951-.2349-.6265-.3759-.9084-.3445-.92405h-4.4949l-.3759.92405-.3915.8771-.2663.6421c-.0939.2193-.1879.4229-.2349.6108h-1.989l2.4275-5.29366 2.5059-5.74779z" /><path d="m33.634 12.094-.0626-4.36961-.1723-4.13463-.3132.84572-.3603.97103-1.2215 3.42989-1.1903 3.2733h-1.8481l-1.5035-4.43226-1.3313-4.07202-.4072 4.15033-.2505 4.35395h-1.8794c.2662-1.8638.4698-3.66484.6264-5.4816l.3289-5.46589h2.5059l.9083 2.80342 1.0181 2.86606.5637 1.64448.5169 1.53483 1.6288-4.36957 1.5662-4.49488h2.4275c0 1.56615.0627 3.39856.1723 5.2936l.4229 5.63815" /><path d="m40.1324 10.6688c1.0963 0 1.8167-.1566 2.2709-.4698.4542-.29761.6265-.75181.6265-1.29999 0-.57948-.2349-1.01798-.7204-1.29989-.4856-.29757-1.2217-.43855-2.224-.43855h-1.0963v1.7698l.0313 1.75413m.0157-8.08144-.0313 1.48785v1.62881h1.0179c.8771 0 1.5192-.14095 1.9421-.42286.4229-.26625.6265-.67345.6265-1.20595 0-.50117-.1723-.89271-.5795-1.15895-.4073-.26625-1.0337-.40721-1.9264-.40721l-.5325.01567c-.188.01565-.3759.03132-.5168.06264zm3.5082 3.60219c.7674.15659 1.3938.48551 1.8167.93967.4229.4542.6735 1.01803.6735 1.67577 0 1.065-.3916 1.87941-1.159 2.42751-.7831.5482-1.942.8458-3.5082.8458h-3.3985l.0939-2.64681.0157-2.66251-.0157-2.81906-.0939-2.78776h3.3672c1.3312 0 2.3962.25058 3.1166.70477.7205.45419 1.112 1.12763 1.112 1.9577 0 .51683-.2192 1.03366-.5795 1.45653-.3602.42286-.8614.75176-1.4408.90839z" /><path d="m48.0106 9.32204.0157.6578.0157.64216 2.6468-.0157 2.2552-.047-.5638 1.5349h-6.4212l.1096-2.64688v-2.66246-2.83474l-.1096-2.78777h2.13l-.0314 1.04933-.0156.92404-.047 1.70711-.0157 1.94203.0157 1.33126" /><path d="m54.1348 12.0942.0939-2.64688.0159-2.66246-.0159-2.83474-.0939-2.78777h2.1145v.76742l-.016.70477-.0467 1.9577-.0159 2.19262.0159 2.05167.0467 1.86377.016.6734v.7205" /><path d="m66.7119 1.16235-.0631 2.78777v2.83474 2.66246l.0631 2.64688h-1.8953l-3.0383-4.58892-2.7093-3.91538.0154 4.55752.0939 3.94678h-1.9107l.0939-2.64688.0159-2.66246-.0159-2.83474-.0939-2.78777h2.193l3.0537 4.22864 2.4275 3.58652-.0154-4.15034-.0939-3.66482" /><path d="m77.6895 11.8747c-.5641.2036-1.1594.3446-1.7855.4386-.6421.094-1.316.1409-2.0673.1409-1.5977 0-3.1014-.5168-4.1977-1.4565-1.0962-.924-1.7855-2.25527-1.7855-3.85273 0-1.78545.6426-3.28897 1.7542-4.33829 1.1122-1.04933 2.6939-1.66013 4.6047-1.66013.7046 0 1.3313.06264 1.9107.18794.5794.10963 1.1122.28191 1.5818.50116l-.6108 1.66014c-.235-.23493-.6579-.43853-1.1747-.59514-.5169-.15662-1.143-.25059-1.7543-.25059-1.3466 0-2.3962.4072-3.1008 1.12764-.7047.72043-1.065 1.75409-1.065 3.00703 0 1.3312.4701 2.3962 1.1902 3.13231.7205.73616 1.7075 1.12766 2.7411 1.12766.3757 0 .6734-.0157.9551-.047.2664-.0313.5014-.094.7047-.1723.0313-.2976.0472-.7204.0626-1.14326l.0159-1.12766-.0159-.98667c-.0154-.29757-.0313-.56383-.0626-.83009h2.1304c-.0159.31327-.0313.6578-.0313 1.01803v1.11195 1.4565l.0313 1.4879" /><path d="m1.02539 21.0838c0-1.8481.67345-3.3359 1.76976-4.3696 1.09632-1.018 2.61549-1.5818 4.2913-1.5818.70476 0 1.29989.0313 1.81671.1253.51687.0939.97102.2349 1.40954.4385l-.65777 1.7698c-.14093-.2036-.45421-.4229-.8927-.5952-.43855-.1723-1.01804-.2975-1.69144-.2975-1.14332 0-2.13.3915-2.81911 1.1119-.68911.7205-1.11198 1.7698-1.11198 3.0854 0 1.2529.42287 2.3022 1.12764 3.0227.70478.7204 1.69145 1.1433 2.80345 1.1433.51682 0 .98668-.0471 1.42518-.1723.43855-.1253.84574-.2976 1.25293-.5639l.5951 1.3939c-.53244.2976-1.06496.5012-1.64444.6265s-1.22157.1879-1.95769.1879c-1.6288 0-3.05401-.5325-4.08767-1.4721-1.00235-.9554-1.62881-2.2867-1.62881-3.8528z" /><path d="m16.1561 24.9679c1.0807 0 1.9734-.4229 2.6155-1.159.6265-.7361.9867-1.7854.9867-3.054s-.3759-2.3179-1.0023-3.0384c-.6422-.736-1.5349-1.1432-2.5999-1.1432-1.1276 0-2.0203.4228-2.6468 1.1589-.6264.7361-.9553 1.7854-.9553 3.0227 0 1.2529.3445 2.3022.971 3.054.6421.7361 1.5348 1.159 2.6311 1.159zm0-9.8355c1.7228 0 3.1637.5482 4.1817 1.5035s1.5975 2.3336 1.5975 3.978c0 1.7541-.6422 3.195-1.6759 4.213-1.0492 1.0024-2.4901 1.5662-4.1033 1.5662-1.7227 0-3.1792-.5325-4.1973-1.4879-1.018-.9553-1.6131-2.3179-1.6131-3.9623 0-1.7541.6264-3.2107 1.6601-4.2287 1.065-1.018 2.5058-1.5818 4.1503-1.5818z" /><path d="m33.2414 25.9545-.0626-4.3695-.1723-4.119-.2975.8301-.3603.9553-1.2529 3.4456-1.1903 3.2575h-1.848l-1.5036-4.4322-1.3312-4.0563-.3915 4.1347-.2663 4.3538h-1.8794c.2663-1.8637.4699-3.6647.6265-5.4815l.3289-5.4502h2.5058l.9084 2.8191 1.018 2.8817.5795 1.6445.5012 1.5191 1.6444-4.3539 1.5975-4.5105h2.3962c0 1.5661.0627 3.3985.1723 5.2936l.4229 5.6381" /><path d="m46.5852 25.9545-.0626-4.3695-.1723-4.119-.3132.8301-.3603.9553-1.2372 3.4456-1.1903 3.2575h-1.8794l-1.4878-4.4322-1.3313-4.0563-.4072 4.1347-.2662 4.3538h-1.8481c.2663-1.8637.4699-3.6647.6108-5.4815l.3289-5.4502h2.5372l.8927 2.8191 1.0023 2.8817.5952 1.6445.5168 1.5191 1.6288-4.3539 1.5818-4.5105h2.3962c0 1.5661.0627 3.3985.1723 5.2936l.4229 5.6381" /><path d="m49.75 25.9545.0939-2.6154.0157-2.6625-.0157-2.8504-.0939-2.8034h2.1143l-.094 2.8034-.0156 2.8504.0156 2.6625.094 2.6154" /><path d="m59.7422 17.3251c-.2345-.2036-.5481-.4072-.9551-.5638-.3916-.1566-.8612-.2506-1.4099-.2506-.6733 0-1.1588.1409-1.4878.3758-.3284.235-.5009.5795-.5009.9711 0 .3289.078.6108.329.877.2504.2663.6887.5325 1.3939.8457l.5481.235.5482.2349c.8458.3759 1.4406.7831 1.8168 1.2686.3916.4855.5635 1.0806.5635 1.8324 0 1.065-.4383 1.8637-1.143 2.3962-.7205.5325-1.7229.8144-2.8663.8144-.6734 0-1.3154-.047-1.9108-.1723-.5948-.1096-1.1588-.2819-1.6913-.5324l.6108-1.5975c.4072.2662.8927.5011 1.3936.6578.5014.1566 1.0342.2505 1.551.2505.7359 0 1.2368-.1722 1.5658-.4541.3136-.2819.4542-.6735.4542-1.0963 0-.3916-.1411-.7205-.407-1.0024-.2822-.2819-.6892-.5325-1.2533-.7831l-.6261-.2976-.6266-.2819c-.7519-.3445-1.3154-.736-1.6914-1.2059-.3759-.4698-.5638-1.018-.5638-1.7228 0-.877.3915-1.6445 1.0963-2.1769.7047-.5482 1.707-.8771 2.9285-.8771.6738 0 1.2533.0626 1.7542.1566.5014.094.9084.235 1.2373.4229" /><path d="m67.8849 17.3251c-.2504-.2036-.564-.4072-.9551-.5638-.3916-.1566-.8617-.2506-1.3939-.2506-.6739 0-1.1748.1409-1.5038.3758-.3289.235-.5009.5795-.5009.9711 0 .3289.078.6108.3444.877.2505.2663.6893.5325 1.4093.8457l.5481.235.5487.2349c.8453.3759 1.4406.7831 1.8163 1.2686.3916.4855.564 1.0806.564 1.8324 0 1.065-.4383 1.8637-1.1434 2.3962-.7201.5325-1.7224.8144-2.8659.8144-.6892 0-1.3313-.047-1.9266-.1723-.5949-.1096-1.1589-.2819-1.6757-.5324l.6107-1.5975c.4075.2662.8771.5011 1.3786.6578.5009.1566 1.0336.2505 1.5658.2505.7365 0 1.2374-.1722 1.5664-.4541.313-.2819.4542-.6735.4542-1.0963 0-.3916-.1412-.7205-.4075-1.0024-.2818-.2819-.6888-.5325-1.2528-.7831l-.6261-.2976-.6267-.2819c-.7519-.3445-1.3154-.736-1.6916-1.2059-.3757-.4698-.5635-1.018-.5635-1.7228 0-.877.3911-1.6445 1.0962-2.1769.7047-.5482 1.707-.8771 2.9285-.8771.6733 0 1.2528.0626 1.7542.1566s.9084.235 1.2374.4229" /><path d="m69.8438 25.9545.0944-2.6154.0154-2.6625-.0154-2.8504-.0944-2.8034h2.1144l-.0939 2.8034-.0154 2.8504.0154 2.6625.0939 2.6154" /><path d="m78.9745 24.9679c1.0962 0 1.9887-.4229 2.6308-1.159.6266-.7361.9869-1.7854.9869-3.054s-.3762-2.3179-1.0023-3.0384c-.6421-.736-1.5505-1.1432-2.6154-1.1432-1.1122 0-2.0206.4228-2.6313 1.1589-.6267.7361-.971 1.7854-.971 3.0227 0 1.2529.3603 2.3022.9864 3.054.6266.7361 1.535 1.159 2.6159 1.159zm0-9.8355c1.7383 0 3.1789.5482 4.1971 1.5035 1.0178.9553 1.5977 2.3336 1.5977 3.978 0 1.7541-.6266 3.195-1.6762 4.213-1.049 1.0024-2.4902 1.5662-4.1345 1.5662-1.7229 0-3.1635-.5325-4.1818-1.4879-1.0177-.9553-1.5971-2.3179-1.5971-3.9623 0-1.7541.6261-3.2107 1.6597-4.2287 1.0337-1.018 2.4748-1.5818 4.1351-1.5818z" /><path d="m94.9965 15.0228-.0467 2.8034-.0159 2.8504.0159 2.6625.0467 2.6154h-1.8322l-3.0856-4.5888-2.7093-3.8997v4.5575l.1099 3.931h-1.8641v-.3132l.0627-2.1613.0472-2.8034-.0313-3.2576-.0786-2.3962h2.1612l3.0542 4.2599 2.4276 3.5865-.0159-4.1346-.094-3.7118" /></g><!-- u:5ed4a93e2afb -->
</svg>